<?plantuml 1.2026.2?><svg xmlns="http://www.w3.org/2000/svg" xmlns:xlink="http://www.w3.org/1999/xlink" contentStyleType="text/css" data-diagram-type="CLASS" height="646px" preserveAspectRatio="none" style="width:720px;height:646px;background:#FFFFFF;" version="1.1" viewBox="0 0 720 646" width="720px" zoomAndPan="magnify"><defs/><g><!--cluster Recopilaci?n de Datos (Inspecci?n)--><g class="cluster" data-qualified-name="Recopilaci.n de Datos .Inspecci.n." data-source-line="11" id="ent0002"><path d="M13.5,11 L293.6934,11 A3.75,3.75 0 0 1 296.1934,13.5 L303.1934,34.0146 L382.5,34.0146 A2.5,2.5 0 0 1 385,36.5146 L385,594 A2.5,2.5 0 0 1 382.5,596.5 L13.5,596.5 A2.5,2.5 0 0 1 11,594 L11,13.5 A2.5,2.5 0 0 1 13.5,11" fill="#FFFFFF" style="stroke:#000000;stroke-width:1;"/><line style="stroke:#000000;stroke-width:1;" x1="11" x2="303.1934" y1="34.0146" y2="34.0146"/><text fill="#000000" font-family="Verdana" font-size="14" font-weight="bold" lengthAdjust="spacing" textLength="279.1934" x="15" y="27.0752">Recopilaci&#243;n de Datos (Inspecci&#243;n)</text></g><!--cluster Evaluaci?n de Riesgo y Seguridad--><g class="cluster" data-qualified-name="Evaluaci.n de Riesgo y Seguridad" data-source-line="44" id="ent0005"><path d="M411.5,390 L676.9893,390 A3.75,3.75 0 0 1 679.4893,392.5 L686.4893,413.0146 L710.5,413.0146 A2.5,2.5 0 0 1 713,415.5146 L713,636.5 A2.5,2.5 0 0 1 710.5,639 L411.5,639 A2.5,2.5 0 0 1 409,636.5 L409,392.5 A2.5,2.5 0 0 1 411.5,390" fill="#FFFFFF" style="stroke:#000000;stroke-width:1;"/><line style="stroke:#000000;stroke-width:1;" x1="409" x2="686.4893" y1="413.0146" y2="413.0146"/><text fill="#000000" font-family="Verdana" font-size="14" font-weight="bold" lengthAdjust="spacing" textLength="264.4893" x="413" y="406.0752">Evaluaci&#243;n de Riesgo y Seguridad</text></g><!--class inspeccion--><g class="entity" data-qualified-name="Recopilaci.n de Datos .Inspecci.n..inspeccion" data-source-line="13" id="ent0003"><rect fill="#FFFFFF" height="299.2197" rx="2.5" ry="2.5" style="stroke:#000000;stroke-width:1;" width="341.5703" x="27" y="47"/><ellipse cx="148.771" cy="61" fill="#FFFFFF" rx="9" ry="9" style="stroke:#000000;stroke-width:1;"/><path d="M144.5054,67 L144.5054,54.8281 L153.5366,54.8281 L153.5366,56.8906 L146.9585,56.8906 L146.9585,59.5938 L153.0679,59.5938 L153.0679,61.6406 L146.9585,61.6406 L146.9585,64.9531 L153.771,64.9531 L153.771,67 L144.5054,67 Z " fill="#000000"/><text fill="#000000" font-family="Verdana" font-size="14" lengthAdjust="spacing" textLength="90.5283" x="166.271" y="66.5679">Inspecciones</text><line style="stroke:#000000;stroke-width:1;" x1="28" x2="367.5703" y1="75" y2="75"/><g data-visibility-modifier="IE_MANDATORY"><ellipse cx="38" cy="89.0073" fill="#FFFFFF" rx="3" ry="3" style="stroke:#000000;stroke-width:1;"/></g><text fill="#000000" font-family="Verdana" font-size="14" lengthAdjust="spacing" textLength="94.8691" x="45" y="93.0752">id : INT &#171;PK&#187;</text><line style="stroke:#000000;stroke-width:1;" x1="28" x2="367.5703" y1="100.0146" y2="100.0146"/><g data-visibility-modifier="IE_MANDATORY"><ellipse cx="38" cy="114.022" fill="#FFFFFF" rx="3" ry="3" style="stroke:#000000;stroke-width:1;"/></g><text fill="#000000" font-family="Verdana" font-size="14" lengthAdjust="spacing" textLength="276.3496" x="45" y="118.0898">reportado_por_id : INT &#171;External_Ref&#187;</text><g data-visibility-modifier="IE_MANDATORY"><ellipse cx="38" cy="131.0366" fill="#FFFFFF" rx="3" ry="3" style="stroke:#000000;stroke-width:1;"/></g><text fill="#000000" font-family="Verdana" font-size="14" lengthAdjust="spacing" textLength="248.3291" x="45" y="135.1045">sede_area_id : INT &#171;External_Ref&#187;</text><text fill="#000000" font-family="Verdana" font-size="14" lengthAdjust="spacing" textLength="296.7412" x="45" y="152.1191">activo_id : INT &#171;External_Ref&#187; &#171;Nullable&#187;</text><text fill="#000000" font-family="Verdana" font-size="14" lengthAdjust="spacing" textLength="4.9219" x="45" y="169.1338">&#160;</text><g data-visibility-modifier="IE_MANDATORY"><ellipse cx="38" cy="182.0806" fill="#FFFFFF" rx="3" ry="3" style="stroke:#000000;stroke-width:1;"/></g><text fill="#000000" font-family="Verdana" font-size="14" lengthAdjust="spacing" textLength="223.1045" x="45" y="186.1484">tipo_formulario : VARCHAR(30)</text><g data-visibility-modifier="IE_MANDATORY"><ellipse cx="38" cy="199.0952" fill="#FFFFFF" rx="3" ry="3" style="stroke:#000000;stroke-width:1;"/></g><text fill="#000000" font-family="Verdana" font-size="14" lengthAdjust="spacing" textLength="219.6934" x="45" y="203.1631">origen_reporte : VARCHAR(50)</text><text fill="#000000" font-family="Verdana" font-size="14" lengthAdjust="spacing" textLength="4.9219" x="45" y="220.1777">&#160;</text><g data-visibility-modifier="IE_MANDATORY"><ellipse cx="38" cy="233.1245" fill="#FFFFFF" rx="3" ry="3" style="stroke:#000000;stroke-width:1;"/></g><text fill="#000000" font-family="Verdana" font-size="14" lengthAdjust="spacing" textLength="239.9346" x="45" y="237.1924">asunto_principal : VARCHAR(150)</text><text fill="#000000" font-family="Verdana" font-size="14" lengthAdjust="spacing" textLength="186.7236" x="45" y="254.207">detalles_completos : TEXT</text><text fill="#000000" font-family="Verdana" font-size="14" lengthAdjust="spacing" textLength="317.5703" x="45" y="271.2217">ubicacion_georreferenciada : VARCHAR(100)</text><text fill="#000000" font-family="Verdana" font-size="14" lengthAdjust="spacing" textLength="4.9219" x="45" y="288.2363">&#160;</text><g data-visibility-modifier="IE_MANDATORY"><ellipse cx="38" cy="301.1831" fill="#FFFFFF" rx="3" ry="3" style="stroke:#000000;stroke-width:1;"/></g><text fill="#000000" font-family="Verdana" font-size="14" lengthAdjust="spacing" textLength="172.1084" x="45" y="305.251">fecha_inicio : DATETIME</text><text fill="#000000" font-family="Verdana" font-size="14" lengthAdjust="spacing" textLength="253.0527" x="45" y="322.2656">fecha_envio : DATETIME &#171;Nullable&#187;</text><g data-visibility-modifier="IE_MANDATORY"><ellipse cx="38" cy="335.2124" fill="#FFFFFF" rx="3" ry="3" style="stroke:#000000;stroke-width:1;"/></g><text fill="#000000" font-family="Verdana" font-size="14" lengthAdjust="spacing" textLength="243.3047" x="45" y="339.2803">estado_formulario : VARCHAR(30)</text></g><!--class evidencias--><g class="entity" data-qualified-name="Recopilaci.n de Datos .Inspecci.n..evidencias" data-source-line="35" id="ent0004"><rect fill="#FFFFFF" height="112.0586" rx="2.5" ry="2.5" style="stroke:#000000;stroke-width:1;" width="226.8291" x="84.5" y="468.5"/><ellipse cx="115.3506" cy="482.5" fill="#FFFFFF" rx="9" ry="9" style="stroke:#000000;stroke-width:1;"/><path d="M111.085,488.5 L111.085,476.3281 L120.1162,476.3281 L120.1162,478.3906 L113.5381,478.3906 L113.5381,481.0938 L119.6475,481.0938 L119.6475,483.1406 L113.5381,483.1406 L113.5381,486.4531 L120.3506,486.4531 L120.3506,488.5 L111.085,488.5 Z " fill="#000000"/><text fill="#000000" font-family="Verdana" font-size="14" lengthAdjust="spacing" textLength="159.1611" x="131.3174" y="488.0679">EvidenciasFotograficas</text><line style="stroke:#000000;stroke-width:1;" x1="85.5" x2="310.3291" y1="496.5" y2="496.5"/><g data-visibility-modifier="IE_MANDATORY"><ellipse cx="95.5" cy="510.5073" fill="#FFFFFF" rx="3" ry="3" style="stroke:#000000;stroke-width:1;"/></g><text fill="#000000" font-family="Verdana" font-size="14" lengthAdjust="spacing" textLength="94.8691" x="102.5" y="514.5752">id : INT &#171;PK&#187;</text><line style="stroke:#000000;stroke-width:1;" x1="85.5" x2="310.3291" y1="521.5146" y2="521.5146"/><g data-visibility-modifier="IE_MANDATORY"><ellipse cx="95.5" cy="535.522" fill="#FFFFFF" rx="3" ry="3" style="stroke:#000000;stroke-width:1;"/></g><text fill="#000000" font-family="Verdana" font-size="14" lengthAdjust="spacing" textLength="176.2168" x="102.5" y="539.5898">inspeccion_id : INT &#171;FK&#187;</text><g data-visibility-modifier="IE_MANDATORY"><ellipse cx="95.5" cy="552.5366" fill="#FFFFFF" rx="3" ry="3" style="stroke:#000000;stroke-width:1;"/></g><text fill="#000000" font-family="Verdana" font-size="14" lengthAdjust="spacing" textLength="202.8291" x="102.5" y="556.6045">url_archivo : VARCHAR(255)</text><g data-visibility-modifier="IE_MANDATORY"><ellipse cx="95.5" cy="569.5513" fill="#FFFFFF" rx="3" ry="3" style="stroke:#000000;stroke-width:1;"/></g><text fill="#000000" font-family="Verdana" font-size="14" lengthAdjust="spacing" textLength="181.7813" x="102.5" y="573.6191">fecha_subida : DATETIME</text></g><!--class condicion--><g class="entity" data-qualified-name="Evaluaci.n de Riesgo y Seguridad.condicion" data-source-line="46" id="ent0006"><rect fill="#FFFFFF" height="197.1318" rx="2.5" ry="2.5" style="stroke:#000000;stroke-width:1;" width="272.0557" x="425" y="426"/><ellipse cx="480.5444" cy="440" fill="#FFFFFF" rx="9" ry="9" style="stroke:#000000;stroke-width:1;"/><path d="M476.2788,446 L476.2788,433.8281 L485.3101,433.8281 L485.3101,435.8906 L478.7319,435.8906 L478.7319,438.5938 L484.8413,438.5938 L484.8413,440.6406 L478.7319,440.6406 L478.7319,443.9531 L485.5444,443.9531 L485.5444,446 L476.2788,446 Z " fill="#000000"/><text fill="#000000" font-family="Verdana" font-size="14" lengthAdjust="spacing" textLength="153.4668" x="498.0444" y="445.5679">CondicionesInseguras</text><line style="stroke:#000000;stroke-width:1;" x1="426" x2="696.0557" y1="454" y2="454"/><g data-visibility-modifier="IE_MANDATORY"><ellipse cx="436" cy="468.0073" fill="#FFFFFF" rx="3" ry="3" style="stroke:#000000;stroke-width:1;"/></g><text fill="#000000" font-family="Verdana" font-size="14" lengthAdjust="spacing" textLength="94.8691" x="443" y="472.0752">id : INT &#171;PK&#187;</text><line style="stroke:#000000;stroke-width:1;" x1="426" x2="696.0557" y1="479.0146" y2="479.0146"/><g data-visibility-modifier="IE_MANDATORY"><ellipse cx="436" cy="493.022" fill="#FFFFFF" rx="3" ry="3" style="stroke:#000000;stroke-width:1;"/></g><text fill="#000000" font-family="Verdana" font-size="14" lengthAdjust="spacing" textLength="248.0557" x="443" y="497.0898">inspeccion_id : INT &#171;FK&#187; &#171;Unique&#187;</text><text fill="#000000" font-family="Verdana" font-size="14" lengthAdjust="spacing" textLength="4.9219" x="443" y="514.1045">&#160;</text><g data-visibility-modifier="IE_MANDATORY"><ellipse cx="436" cy="527.0513" fill="#FFFFFF" rx="3" ry="3" style="stroke:#000000;stroke-width:1;"/></g><text fill="#000000" font-family="Verdana" font-size="14" lengthAdjust="spacing" textLength="211.415" x="443" y="531.1191">es_casi_accidente : BOOLEAN</text><text fill="#000000" font-family="Verdana" font-size="14" lengthAdjust="spacing" textLength="229.6533" x="443" y="548.1338">parametros_identificados : TEXT</text><text fill="#000000" font-family="Verdana" font-size="14" lengthAdjust="spacing" textLength="4.9219" x="443" y="565.1484">&#160;</text><g data-visibility-modifier="IE_MANDATORY"><ellipse cx="436" cy="578.0952" fill="#FFFFFF" rx="3" ry="3" style="stroke:#000000;stroke-width:1;"/></g><text fill="#000000" font-family="Verdana" font-size="14" lengthAdjust="spacing" textLength="169.6885" x="443" y="582.1631">nivel_probabilidad : INT</text><g data-visibility-modifier="IE_MANDATORY"><ellipse cx="436" cy="595.1099" fill="#FFFFFF" rx="3" ry="3" style="stroke:#000000;stroke-width:1;"/></g><text fill="#000000" font-family="Verdana" font-size="14" lengthAdjust="spacing" textLength="158.9219" x="443" y="599.1777">indice_severidad : INT</text><g data-visibility-modifier="IE_MANDATORY"><ellipse cx="436" cy="612.1245" fill="#FFFFFF" rx="3" ry="3" style="stroke:#000000;stroke-width:1;"/></g><text fill="#000000" font-family="Verdana" font-size="14" lengthAdjust="spacing" textLength="199.999" x="443" y="616.1924">nivel_riesgo_calculado : INT</text></g><!--link inspeccion to evidencias--><g class="link" data-entity-1="ent0003" data-entity-2="ent0004" data-link-type="crowfoot" data-source-line="66" id="lnk7"><path codeLine="66" d="M198,354.1 C198,397.52 198,416.3 198,450.14" fill="none" id="inspeccion-evidencias" style="stroke:#000000;stroke-width:1;"/><line style="stroke:#000000;stroke-width:1;" x1="194" x2="202" y1="350.1" y2="350.1"/><line style="stroke:#000000;stroke-width:1;" x1="194" x2="202" y1="353.1" y2="353.1"/><line style="stroke:#000000;stroke-width:1;" x1="198" x2="198" y1="354.1" y2="346.1"/><line style="stroke:#000000;stroke-width:1;" x1="198" x2="204" y1="460.14" y2="468.14"/><line style="stroke:#000000;stroke-width:1;" x1="198" x2="192" y1="460.14" y2="468.14"/><line style="stroke:#000000;stroke-width:1;" x1="198" x2="198" y1="460.14" y2="468.14"/><ellipse cx="198" cy="454.14" fill="none" rx="4" ry="4" style="stroke:#000000;stroke-width:1;"/><text fill="#000000" font-family="Verdana" font-size="13" lengthAdjust="spacing" textLength="86.6011" x="111" y="404.1898">respalda_con</text></g><!--link inspeccion to condicion--><g class="link" data-entity-1="ent0003" data-entity-2="ent0006" data-link-type="association" data-source-line="67" id="lnk8"><path codeLine="67" d="M340.25,354.07 C340.25,408.08 340.25,448 340.25,448 C340.25,448 364.54,448 409.97,448" fill="none" id="inspeccion-condicion" style="stroke:#000000;stroke-width:1;"/><line style="stroke:#000000;stroke-width:1;" x1="336.25" x2="344.25" y1="350.07" y2="350.07"/><line style="stroke:#000000;stroke-width:1;" x1="336.25" x2="344.25" y1="353.07" y2="353.07"/><line style="stroke:#000000;stroke-width:1;" x1="340.25" x2="340.25" y1="354.07" y2="346.07"/><line style="stroke:#000000;stroke-width:1;" x1="413.97" x2="424.97" y1="448" y2="448"/><ellipse cx="413.97" cy="448" fill="none" rx="4" ry="4" style="stroke:#000000;stroke-width:1;"/><line style="stroke:#000000;stroke-width:1;" x1="420.97" x2="420.97" y1="444" y2="452"/><text fill="#000000" font-family="Verdana" font-size="13" lengthAdjust="spacing" textLength="122.7383" x="217.25" y="436.4598">genera_evaluacion</text></g><?plantuml-src hLNRQXin47ttLqpt9HSmk2qknQG1rzwq9l45smajfIoJtR4Z8ajRQTSq9FcAV44_e0-bd-0VwsZjh6LCGWpTbmNDqSpHcJdIg-oAPWIfHA4gzbge50tEG0f5sKrAe4rsfRs0qWbPIk5TpLiqgAxTuljQfR877rxyCRYxU6YVd_KRqEcD1c6hrLayzE0h3CD1VpWE8Un1gzaTz7TBMqanliOfGJ2aMAT2OYmMVnKa16tCj8NzZh8fnSNgGG2tbGhmHoeJsGq4Zq6jo0Q05aIvm51OVOSW4d2ynt1qD3WzFYuZrQe7CfIoXfZeYF-HjoNycP5HAACXJRpDXs0feGWDuGlG66TYhfy6ya8lbn8l9V6kSjiUVEkTXnVzxz0LHZSWED5cbaiqGeDP_4f5efrOOgrI07CBFKQXzAXc8jNHPBst0HVDOUjpSxZ_jdRmPBMHi1dD4AYWgY7ufFLK4hX4jYZKJ5DGo4T3hvWsOaegMWfANgqwr_9mQ7ELiTn6g5YaA3tawxf7Aw4CfIGRnNgMId9pqO1n-6LS8l9B4QDhUpGbRGnDo13dn0Jzd3M__1wqjCgCbaw_c2V8DKWacC3-I2ZkxU8FCoBb7ASoFF1uJoY-ufuh4HTAjflZSDpfXYLY6ISrtmXlTdYTZMmnTCysvtvpxaCcMfpFdkXCJmrE-FXB1r0Psjq1Q_VuStfoka4tDv9dFhxYQVQ8lgdNjnMot9QY0niAtLVkFT-7SvJvslL3GNQguGP6DCsDQyUMwRbjYLXwdltlOAkZnu-1_tbo_fqhyID_rfLjzebGqvmWL_0uzgcXkUCyBnpAWQ25LbIHot27CWesPY3Y1ege33A7Z_t-MTZibQZY1YUUM1iL6E6QdgozuB5RtHLjOjlEX483YzzE6t9CBDDQASjgfaPVugMGnOB7I8avoSYFBcNP4CsbZCfyMu1b3bEqbCydOvxlH7kmOXHsV8U6uLcprUdtmj6EJuttDjpTLQlwrlSAgsN8yXsK8DyoAjX2ttdZnM2-tyYmnrVJwtRy0m00?></g></svg>