<?plantuml 1.2026.2?><svg xmlns="http://www.w3.org/2000/svg" xmlns:xlink="http://www.w3.org/1999/xlink" contentStyleType="text/css" data-diagram-type="CLASS" height="476px" preserveAspectRatio="none" style="width:834px;height:476px;background:#FFFFFF;" version="1.1" viewBox="0 0 834 476" width="834px" zoomAndPan="magnify"><defs/><g><!--cluster Infraestructura Local--><g class="cluster" data-qualified-name="Infraestructura Local" data-source-line="11" id="ent0002"><path d="M13.5,11 L181.8438,11 A3.75,3.75 0 0 1 184.3438,13.5 L191.3438,34.0146 L356.5,34.0146 A2.5,2.5 0 0 1 359,36.5146 L359,206.5 A2.5,2.5 0 0 1 356.5,209 L13.5,209 A2.5,2.5 0 0 1 11,206.5 L11,13.5 A2.5,2.5 0 0 1 13.5,11" fill="#FFFFFF" style="stroke:#000000;stroke-width:1;"/><line style="stroke:#000000;stroke-width:1;" x1="11" x2="191.3438" y1="34.0146" y2="34.0146"/><text fill="#000000" font-family="Verdana" font-size="14" font-weight="bold" lengthAdjust="spacing" textLength="167.3438" x="15" y="27.0752">Infraestructura Local</text></g><!--cluster Inventario Central (Cat?logo)--><g class="cluster" data-qualified-name="Inventario Central .Cat.logo." data-source-line="25" id="ent0004"><path d="M385.5,19.5 L620.2412,19.5 A3.75,3.75 0 0 1 622.7412,22 L629.7412,42.5146 L824.5,42.5146 A2.5,2.5 0 0 1 827,45.0146 L827,466.5 A2.5,2.5 0 0 1 824.5,469 L385.5,469 A2.5,2.5 0 0 1 383,466.5 L383,22 A2.5,2.5 0 0 1 385.5,19.5" fill="#FFFFFF" style="stroke:#000000;stroke-width:1;"/><line style="stroke:#000000;stroke-width:1;" x1="383" x2="629.7412" y1="42.5146" y2="42.5146"/><text fill="#000000" font-family="Verdana" font-size="14" font-weight="bold" lengthAdjust="spacing" textLength="233.7412" x="387" y="35.5752">Inventario Central (Cat&#225;logo)</text></g><!--class sedes--><g class="entity" data-qualified-name="Infraestructura Local.sedes" data-source-line="12" id="ent0003"><rect fill="#FFFFFF" height="146.0879" rx="2.5" ry="2.5" style="stroke:#000000;stroke-width:1;" width="315.5391" x="27" y="47"/><ellipse cx="135.6426" cy="61" fill="#FFFFFF" rx="9" ry="9" style="stroke:#000000;stroke-width:1;"/><path d="M131.377,67 L131.377,54.8281 L140.4082,54.8281 L140.4082,56.8906 L133.8301,56.8906 L133.8301,59.5938 L139.9395,59.5938 L139.9395,61.6406 L133.8301,61.6406 L133.8301,64.9531 L140.6426,64.9531 L140.6426,67 L131.377,67 Z " fill="#000000"/><text fill="#000000" font-family="Verdana" font-size="14" lengthAdjust="spacing" textLength="90.7539" x="153.1426" y="66.5679">Sedes_Areas</text><line style="stroke:#000000;stroke-width:1;" x1="28" x2="341.5391" y1="75" y2="75"/><g data-visibility-modifier="IE_MANDATORY"><ellipse cx="38" cy="89.0073" fill="#FFFFFF" rx="3" ry="3" style="stroke:#000000;stroke-width:1;"/></g><text fill="#000000" font-family="Verdana" font-size="14" lengthAdjust="spacing" textLength="94.8691" x="45" y="93.0752">id : INT &#171;PK&#187;</text><line style="stroke:#000000;stroke-width:1;" x1="28" x2="341.5391" y1="100.0146" y2="100.0146"/><g data-visibility-modifier="IE_MANDATORY"><ellipse cx="38" cy="114.022" fill="#FFFFFF" rx="3" ry="3" style="stroke:#000000;stroke-width:1;"/></g><text fill="#000000" font-family="Verdana" font-size="14" lengthAdjust="spacing" textLength="291.5391" x="45" y="118.0898">nombre_sede : VARCHAR(100) &#171;Unique&#187;</text><g data-visibility-modifier="IE_MANDATORY"><ellipse cx="38" cy="131.0366" fill="#FFFFFF" rx="3" ry="3" style="stroke:#000000;stroke-width:1;"/></g><text fill="#000000" font-family="Verdana" font-size="14" lengthAdjust="spacing" textLength="236.9541" x="45" y="135.1045">estado_operativo : VARCHAR(20)</text><text fill="#000000" font-family="Verdana" font-size="14" lengthAdjust="spacing" textLength="4.9219" x="45" y="152.1191">&#160;</text><text fill="#000000" font-family="Verdana" font-size="14" lengthAdjust="spacing" textLength="278.9883" x="45" y="169.1338">registrado_por_id : INT &#171;External_Ref&#187;</text><text fill="#000000" font-family="Verdana" font-size="14" lengthAdjust="spacing" textLength="190.0938" x="45" y="186.1484">fecha_registro : DATETIME</text></g><!--class catalogo--><g class="entity" data-qualified-name="Inventario Central .Cat.logo..catalogo" data-source-line="29" id="ent0005"><rect fill="#FFFFFF" height="129.0732" rx="2.5" ry="2.5" style="stroke:#000000;stroke-width:1;" width="366.6582" x="421.5" y="55.5"/><ellipse cx="545.0962" cy="69.5" fill="#FFFFFF" rx="9" ry="9" style="stroke:#000000;stroke-width:1;"/><path d="M540.8306,75.5 L540.8306,63.3281 L549.8618,63.3281 L549.8618,65.3906 L543.2837,65.3906 L543.2837,68.0938 L549.3931,68.0938 L549.3931,70.1406 L543.2837,70.1406 L543.2837,73.4531 L550.0962,73.4531 L550.0962,75.5 L540.8306,75.5 Z " fill="#000000"/><text fill="#000000" font-family="Verdana" font-size="14" lengthAdjust="spacing" textLength="111.9658" x="562.5962" y="75.0679">CatalogoActivos</text><line style="stroke:#000000;stroke-width:1;" x1="422.5" x2="787.1582" y1="83.5" y2="83.5"/><g data-visibility-modifier="IE_MANDATORY"><ellipse cx="432.5" cy="97.5073" fill="#FFFFFF" rx="3" ry="3" style="stroke:#000000;stroke-width:1;"/></g><text fill="#000000" font-family="Verdana" font-size="14" lengthAdjust="spacing" textLength="94.8691" x="439.5" y="101.5752">id : INT &#171;PK&#187;</text><line style="stroke:#000000;stroke-width:1;" x1="422.5" x2="787.1582" y1="108.5146" y2="108.5146"/><g data-visibility-modifier="IE_MANDATORY"><ellipse cx="432.5" cy="122.522" fill="#FFFFFF" rx="3" ry="3" style="stroke:#000000;stroke-width:1;"/></g><text fill="#000000" font-family="Verdana" font-size="14" lengthAdjust="spacing" textLength="273.7861" x="439.5" y="126.5898">nombre_identificador : VARCHAR(100)</text><g data-visibility-modifier="IE_MANDATORY"><ellipse cx="432.5" cy="139.5366" fill="#FFFFFF" rx="3" ry="3" style="stroke:#000000;stroke-width:1;"/></g><text fill="#000000" font-family="Verdana" font-size="14" lengthAdjust="spacing" textLength="342.6582" x="439.5" y="143.6045">numero_serie_interno : VARCHAR(50) &#171;Unique&#187;</text><text fill="#000000" font-family="Verdana" font-size="14" lengthAdjust="spacing" textLength="189.0342" x="439.5" y="160.6191">descripcion_tecnica : TEXT</text><text fill="#000000" font-family="Verdana" font-size="14" lengthAdjust="spacing" textLength="250.6738" x="439.5" y="177.6338">fecha_ingreso_sistema : DATETIME</text></g><!--class activos--><g class="entity" data-qualified-name="Inventario Central .Cat.logo..activos" data-source-line="40" id="ent0006"><rect fill="#FFFFFF" height="180.1172" rx="2.5" ry="2.5" style="stroke:#000000;stroke-width:1;" width="410.5654" x="399.5" y="273"/><ellipse cx="536.3887" cy="287" fill="#FFFFFF" rx="9" ry="9" style="stroke:#000000;stroke-width:1;"/><path d="M532.123,293 L532.123,280.8281 L541.1543,280.8281 L541.1543,282.8906 L534.5762,282.8906 L534.5762,285.5938 L540.6855,285.5938 L540.6855,287.6406 L534.5762,287.6406 L534.5762,290.9531 L541.3887,290.9531 L541.3887,293 L532.123,293 Z " fill="#000000"/><text fill="#000000" font-family="Verdana" font-size="14" lengthAdjust="spacing" textLength="129.2881" x="553.8887" y="292.5679">Activos_En_Planta</text><line style="stroke:#000000;stroke-width:1;" x1="400.5" x2="809.0654" y1="301" y2="301"/><g data-visibility-modifier="IE_MANDATORY"><ellipse cx="410.5" cy="315.0073" fill="#FFFFFF" rx="3" ry="3" style="stroke:#000000;stroke-width:1;"/></g><text fill="#000000" font-family="Verdana" font-size="14" lengthAdjust="spacing" textLength="94.8691" x="417.5" y="319.0752">id : INT &#171;PK&#187;</text><line style="stroke:#000000;stroke-width:1;" x1="400.5" x2="809.0654" y1="326.0146" y2="326.0146"/><g data-visibility-modifier="IE_MANDATORY"><ellipse cx="410.5" cy="340.022" fill="#FFFFFF" rx="3" ry="3" style="stroke:#000000;stroke-width:1;"/></g><text fill="#000000" font-family="Verdana" font-size="14" lengthAdjust="spacing" textLength="176.1006" x="417.5" y="344.0898">sede_area_id : INT &#171;FK&#187;</text><g data-visibility-modifier="IE_MANDATORY"><ellipse cx="410.5" cy="357.0366" fill="#FFFFFF" rx="3" ry="3" style="stroke:#000000;stroke-width:1;"/></g><text fill="#000000" font-family="Verdana" font-size="14" lengthAdjust="spacing" textLength="162.5586" x="417.5" y="361.1045">catalogo_id : INT &#171;FK&#187;</text><text fill="#000000" font-family="Verdana" font-size="14" lengthAdjust="spacing" textLength="4.9219" x="417.5" y="378.1191">&#160;</text><g data-visibility-modifier="IE_MANDATORY"><ellipse cx="410.5" cy="391.0659" fill="#FFFFFF" rx="3" ry="3" style="stroke:#000000;stroke-width:1;"/></g><text fill="#000000" font-family="Verdana" font-size="14" lengthAdjust="spacing" textLength="213.1992" x="417.5" y="395.1338">estado_actual : VARCHAR(20)</text><text fill="#000000" font-family="Verdana" font-size="14" lengthAdjust="spacing" textLength="4.9219" x="417.5" y="412.1484">&#160;</text><text fill="#000000" font-family="Verdana" font-size="14" lengthAdjust="spacing" textLength="245.5879" x="417.5" y="429.1631">fecha_baja : DATETIME &#171;Nullable&#187;</text><text fill="#000000" font-family="Verdana" font-size="14" lengthAdjust="spacing" textLength="386.5654" x="417.5" y="446.1777">dado_de_baja_por_id : INT &#171;External_Ref&#187; &#171;Nullable&#187;</text></g><!--link sedes to activos--><g class="link" data-entity-1="ent0003" data-entity-2="ent0006" data-link-type="crowfoot" data-source-line="60" id="lnk7"><path codeLine="60" d="M351.15,189 C388.9,189 410.5,189 410.5,189 C410.5,189 410.5,212.48 410.5,254.94" fill="none" id="sedes-activos" style="stroke:#000000;stroke-width:1;"/><line style="stroke:#000000;stroke-width:1;" x1="347.15" x2="347.15" y1="193" y2="185"/><line style="stroke:#000000;stroke-width:1;" x1="350.15" x2="350.15" y1="193" y2="185"/><line style="stroke:#000000;stroke-width:1;" x1="351.15" x2="343.15" y1="189" y2="189"/><line style="stroke:#000000;stroke-width:1;" x1="410.5" x2="416.5" y1="264.94" y2="272.94"/><line style="stroke:#000000;stroke-width:1;" x1="410.5" x2="404.5" y1="264.94" y2="272.94"/><line style="stroke:#000000;stroke-width:1;" x1="410.5" x2="410.5" y1="264.94" y2="272.94"/><ellipse cx="410.5" cy="258.94" fill="none" rx="4" ry="4" style="stroke:#000000;stroke-width:1;"/><text fill="#000000" font-family="Verdana" font-size="13" lengthAdjust="spacing" textLength="55.2944" x="354.5" y="194.3598">contiene</text></g><!--link catalogo to activos--><g class="link" data-entity-1="ent0005" data-entity-2="ent0006" data-link-type="crowfoot" data-source-line="63" id="lnk8"><path codeLine="63" d="M605,192.8 C605,219.79 605,225.6 605,254.82" fill="none" id="catalogo-activos" style="stroke:#000000;stroke-width:1;"/><line style="stroke:#000000;stroke-width:1;" x1="601" x2="609" y1="188.8" y2="188.8"/><line style="stroke:#000000;stroke-width:1;" x1="601" x2="609" y1="191.8" y2="191.8"/><line style="stroke:#000000;stroke-width:1;" x1="605" x2="605" y1="192.8" y2="184.8"/><line style="stroke:#000000;stroke-width:1;" x1="605" x2="611" y1="264.82" y2="272.82"/><line style="stroke:#000000;stroke-width:1;" x1="605" x2="599" y1="264.82" y2="272.82"/><line style="stroke:#000000;stroke-width:1;" x1="605" x2="605" y1="264.82" y2="272.82"/><ellipse cx="605" cy="258.82" fill="none" rx="4" ry="4" style="stroke:#000000;stroke-width:1;"/><text fill="#000000" font-family="Verdana" font-size="13" lengthAdjust="spacing" textLength="108.5259" x="496" y="225.8798">se_asigna_como</text></g><?plantuml-src bLJBRjj65DtpAswvIHp0XbgWHI4a0GY9ReKuIY1BGNV4cBgI9oPdw7aODP9yHRx0oooyogvR_bZFZ5wKrHOL0L4avpxFEVV-uAwvPceg8LLYRwHgX14rLLAnks-Oj77NkdEWz9mjD_HBh_FH27KJFlxQIv9dzEf_Np1-stuTpYxUzUct_78wQh-EQPZJQ7m-oV0-cGsciqbsNCoa4UMDM3Ab8xKmWgqpldJU2BhGfQXI-fGGBbPEkdjABnaD5PbXOLCIbcnuNzk4wmN9EVLHqfHUldp_vlNhxSdfwVOHVKYZ-vGEj5h89PAP68WqjGy8dNR2ALrV6IxYSPy-P9F1xzda-O-ztWaIp9IyzTn9yeBGW9ZhGZTiX9DtkkFqK-yawTIG-RbqshIFWX2xHDvIjj_LriBmKWAD4AtHfkZqbV_fs2XH5HDUT98lkBmMnTej91vcqtmwUfj7Yo_9bpsmxm2fC5BJ00z6LFHy85pxKEcbFWce9wigS-iOJH5NW6jZaFOfhwZKwgDNJeVoHHcQjRJqminHigN6y9qKDOBpsJfMTklRHo2zRKsHqy6smezllMpmB-1WGqZBXhoDiLXH9IXY6Z4wszC4oXAXgcnLGzH5kVvsh3IsXCjv2B-G9GemJvZlMlkQZOOyZ8IF2hnqAV_vdsK2pPP6DgNKgd1SAcI1qpJ_O_g4JAcMXYtY0owknI6dQsGd3BXjO3GGjIA3KiiLbo49UaZfddQY1A1UhSH-jYDQ1A81j1DNkAFam1LOjhw2LDe72li3wCgbmiIuzbke7FHe40g9meQaAYDoRFSvMdDJvAfuNu5Y4LdQgEPeai8u5WBLTyVY_CtU96uaS63IcS4yJcjG6ngksmTeK8c03bj1_WgyHBtXjU6oVGnoE9nrTE4nF_ywwEjbCmGyI7GbFefru-aJjkFHZcBKE_PL1JBsj1DIeljW_D-BuT0_xe0ZL_umFn-DHuFDif_a5zbWz6wSNnwvvv_H3D36FThuS7UiCE5r-rVbP5FnJWqhWOMv3rl0GrERNPMirltdpwUd-jFM7jX2f4uYNXhoXDMqsLHOG_gE8xrpNaZeDV8P2DUxZ47gbMUOsw3vpTIebU3XsqJD9jkjSbY1XHvZtKMfQp3xDm00?></g></svg>