<?plantuml 1.2026.2?><svg xmlns="http://www.w3.org/2000/svg" xmlns:xlink="http://www.w3.org/1999/xlink" contentStyleType="text/css" data-diagram-type="CLASS" height="694px" preserveAspectRatio="none" style="width:651px;height:694px;background:#FFFFFF;" version="1.1" viewBox="0 0 651 694" width="651px" zoomAndPan="magnify"><defs/><g><!--cluster Control de Accesos--><g class="cluster" data-qualified-name="Control de Accesos" data-source-line="7" id="ent0002"><path d="M153.5,11 L303.4688,11 A3.75,3.75 0 0 1 305.9688,13.5 L312.9688,34.0146 L472.5,34.0146 A2.5,2.5 0 0 1 475,36.5146 L475,155.5 A2.5,2.5 0 0 1 472.5,158 L153.5,158 A2.5,2.5 0 0 1 151,155.5 L151,13.5 A2.5,2.5 0 0 1 153.5,11" fill="#FFFFFF" style="stroke:#000000;stroke-width:1;"/><line style="stroke:#000000;stroke-width:1;" x1="151" x2="312.9688" y1="34.0146" y2="34.0146"/><text fill="#000000" font-family="Verdana" font-size="14" font-weight="bold" lengthAdjust="spacing" textLength="148.9688" x="155" y="27.0752">Control de Accesos</text></g><!--cluster Gesti?n de Identidad--><g class="cluster" data-qualified-name="Gesti.n de Identidad" data-source-line="17" id="ent0004"><path d="M122.5,182 L288.6563,182 A3.75,3.75 0 0 1 291.1563,184.5 L298.1563,205.0146 L503.5,205.0146 A2.5,2.5 0 0 1 506,207.5146 L506,462.5 A2.5,2.5 0 0 1 503.5,465 L122.5,465 A2.5,2.5 0 0 1 120,462.5 L120,184.5 A2.5,2.5 0 0 1 122.5,182" fill="#FFFFFF" style="stroke:#000000;stroke-width:1;"/><line style="stroke:#000000;stroke-width:1;" x1="120" x2="298.1563" y1="205.0146" y2="205.0146"/><text fill="#000000" font-family="Verdana" font-size="14" font-weight="bold" lengthAdjust="spacing" textLength="165.1563" x="124" y="198.0752">Gesti&#243;n de Identidad</text></g><!--cluster Seguridad y Auditor?a--><g class="cluster" data-qualified-name="Seguridad y Auditor.a" data-source-line="36" id="ent0006"><path d="M13.5,489 L185.3643,489 A3.75,3.75 0 0 1 187.8643,491.5 L194.8643,512.0146 L641.5,512.0146 A2.5,2.5 0 0 1 644,514.5146 L644,684.5 A2.5,2.5 0 0 1 641.5,687 L13.5,687 A2.5,2.5 0 0 1 11,684.5 L11,491.5 A2.5,2.5 0 0 1 13.5,489" fill="#FFFFFF" style="stroke:#000000;stroke-width:1;"/><line style="stroke:#000000;stroke-width:1;" x1="11" x2="194.8643" y1="512.0146" y2="512.0146"/><text fill="#000000" font-family="Verdana" font-size="14" font-weight="bold" lengthAdjust="spacing" textLength="170.8643" x="15" y="505.0752">Seguridad y Auditor&#237;a</text></g><!--class Roles--><g class="entity" data-qualified-name="Control de Accesos.Roles" data-source-line="8" id="ent0003"><rect fill="#FFFFFF" height="95.0439" rx="2.5" ry="2.5" style="stroke:#000000;stroke-width:1;" width="292.2559" x="167" y="47"/><ellipse cx="290.5244" cy="61" fill="#FFFFFF" rx="9" ry="9" style="stroke:#000000;stroke-width:1;"/><path d="M286.2588,67 L286.2588,54.8281 L295.29,54.8281 L295.29,56.8906 L288.7119,56.8906 L288.7119,59.5938 L294.8213,59.5938 L294.8213,61.6406 L288.7119,61.6406 L288.7119,64.9531 L295.5244,64.9531 L295.5244,67 L286.2588,67 Z " fill="#000000"/><text fill="#000000" font-family="Verdana" font-size="14" lengthAdjust="spacing" textLength="37.707" x="308.0244" y="66.5679">Roles</text><line style="stroke:#000000;stroke-width:1;" x1="168" x2="458.2559" y1="75" y2="75"/><g data-visibility-modifier="IE_MANDATORY"><ellipse cx="178" cy="89.0073" fill="#FFFFFF" rx="3" ry="3" style="stroke:#000000;stroke-width:1;"/></g><text fill="#000000" font-family="Verdana" font-size="14" lengthAdjust="spacing" textLength="94.8691" x="185" y="93.0752">id : INT &#171;PK&#187;</text><line style="stroke:#000000;stroke-width:1;" x1="168" x2="458.2559" y1="100.0146" y2="100.0146"/><g data-visibility-modifier="IE_MANDATORY"><ellipse cx="178" cy="114.022" fill="#FFFFFF" rx="3" ry="3" style="stroke:#000000;stroke-width:1;"/></g><text fill="#000000" font-family="Verdana" font-size="14" lengthAdjust="spacing" textLength="268.2559" x="185" y="118.0898">nombre_rol : VARCHAR(50) &#171;Unique&#187;</text><text fill="#000000" font-family="Verdana" font-size="14" lengthAdjust="spacing" textLength="202.7744" x="185" y="135.1045">descripcion : VARCHAR(255)</text></g><!--class Usuarios--><g class="entity" data-qualified-name="Gesti.n de Identidad.Usuarios" data-source-line="18" id="ent0005"><rect fill="#FFFFFF" height="231.1611" rx="2.5" ry="2.5" style="stroke:#000000;stroke-width:1;" width="352.918" x="136.5" y="218"/><ellipse cx="279.001" cy="232" fill="#FFFFFF" rx="9" ry="9" style="stroke:#000000;stroke-width:1;"/><path d="M274.7354,238 L274.7354,225.8281 L283.7666,225.8281 L283.7666,227.8906 L277.1885,227.8906 L277.1885,230.5938 L283.2979,230.5938 L283.2979,232.6406 L277.1885,232.6406 L277.1885,235.9531 L284.001,235.9531 L284.001,238 L274.7354,238 Z " fill="#000000"/><text fill="#000000" font-family="Verdana" font-size="14" lengthAdjust="spacing" textLength="60.416" x="296.501" y="237.5679">Usuarios</text><line style="stroke:#000000;stroke-width:1;" x1="137.5" x2="488.418" y1="246" y2="246"/><g data-visibility-modifier="IE_MANDATORY"><ellipse cx="147.5" cy="260.0073" fill="#FFFFFF" rx="3" ry="3" style="stroke:#000000;stroke-width:1;"/></g><text fill="#000000" font-family="Verdana" font-size="14" lengthAdjust="spacing" textLength="94.8691" x="154.5" y="264.0752">id : INT &#171;PK&#187;</text><line style="stroke:#000000;stroke-width:1;" x1="137.5" x2="488.418" y1="271.0146" y2="271.0146"/><g data-visibility-modifier="IE_MANDATORY"><ellipse cx="147.5" cy="285.022" fill="#FFFFFF" rx="3" ry="3" style="stroke:#000000;stroke-width:1;"/></g><text fill="#000000" font-family="Verdana" font-size="14" lengthAdjust="spacing" textLength="121.6865" x="154.5" y="289.0898">id_rol : INT &#171;FK&#187;</text><text fill="#000000" font-family="Verdana" font-size="14" lengthAdjust="spacing" textLength="290.1719" x="154.5" y="306.1045">sector_asignado_id : INT &#171;External_Ref&#187;</text><text fill="#000000" font-family="Verdana" font-size="14" lengthAdjust="spacing" textLength="4.9219" x="154.5" y="323.1191">&#160;</text><g data-visibility-modifier="IE_MANDATORY"><ellipse cx="147.5" cy="336.0659" fill="#FFFFFF" rx="3" ry="3" style="stroke:#000000;stroke-width:1;"/></g><text fill="#000000" font-family="Verdana" font-size="14" lengthAdjust="spacing" textLength="328.918" x="154.5" y="340.1338">correo_corporativo : VARCHAR(100) &#171;Unique&#187;</text><g data-visibility-modifier="IE_MANDATORY"><ellipse cx="147.5" cy="353.0806" fill="#FFFFFF" rx="3" ry="3" style="stroke:#000000;stroke-width:1;"/></g><text fill="#000000" font-family="Verdana" font-size="14" lengthAdjust="spacing" textLength="232.7842" x="154.5" y="357.1484">password_hash : VARCHAR(255)</text><g data-visibility-modifier="IE_MANDATORY"><ellipse cx="147.5" cy="370.0952" fill="#FFFFFF" rx="3" ry="3" style="stroke:#000000;stroke-width:1;"/></g><text fill="#000000" font-family="Verdana" font-size="14" lengthAdjust="spacing" textLength="251.3301" x="154.5" y="374.1631">nombre_completo : VARCHAR(150)</text><g data-visibility-modifier="IE_MANDATORY"><ellipse cx="147.5" cy="387.1099" fill="#FFFFFF" rx="3" ry="3" style="stroke:#000000;stroke-width:1;"/></g><text fill="#000000" font-family="Verdana" font-size="14" lengthAdjust="spacing" textLength="218.1484" x="154.5" y="391.1777">estado_cuenta : VARCHAR(20)</text><text fill="#000000" font-family="Verdana" font-size="14" lengthAdjust="spacing" textLength="4.9219" x="154.5" y="408.1924">&#160;</text><text fill="#000000" font-family="Verdana" font-size="14" lengthAdjust="spacing" textLength="156.1875" x="154.5" y="425.207">intentos_fallidos : INT</text><text fill="#000000" font-family="Verdana" font-size="14" lengthAdjust="spacing" textLength="209.207" x="154.5" y="442.2217">bloqueado_hasta : DATETIME</text></g><!--class SesionesUsuario--><g class="entity" data-qualified-name="Seguridad y Auditor.a.SesionesUsuario" data-source-line="37" id="ent0007"><rect fill="#FFFFFF" height="146.0879" rx="2.5" ry="2.5" style="stroke:#000000;stroke-width:1;" width="305.0938" x="322.5" y="525"/><ellipse cx="413.7178" cy="539" fill="#FFFFFF" rx="9" ry="9" style="stroke:#000000;stroke-width:1;"/><path d="M409.4521,545 L409.4521,532.8281 L418.4834,532.8281 L418.4834,534.8906 L411.9053,534.8906 L411.9053,537.5938 L418.0146,537.5938 L418.0146,539.6406 L411.9053,539.6406 L411.9053,542.9531 L418.7178,542.9531 L418.7178,545 L409.4521,545 Z " fill="#000000"/><text fill="#000000" font-family="Verdana" font-size="14" lengthAdjust="spacing" textLength="115.1582" x="431.2178" y="544.5679">SesionesUsuario</text><line style="stroke:#000000;stroke-width:1;" x1="323.5" x2="626.5938" y1="553" y2="553"/><g data-visibility-modifier="IE_MANDATORY"><ellipse cx="333.5" cy="567.0073" fill="#FFFFFF" rx="3" ry="3" style="stroke:#000000;stroke-width:1;"/></g><text fill="#000000" font-family="Verdana" font-size="14" lengthAdjust="spacing" textLength="94.8691" x="340.5" y="571.0752">id : INT &#171;PK&#187;</text><line style="stroke:#000000;stroke-width:1;" x1="323.5" x2="626.5938" y1="578.0146" y2="578.0146"/><g data-visibility-modifier="IE_MANDATORY"><ellipse cx="333.5" cy="592.022" fill="#FFFFFF" rx="3" ry="3" style="stroke:#000000;stroke-width:1;"/></g><text fill="#000000" font-family="Verdana" font-size="14" lengthAdjust="spacing" textLength="155.1074" x="340.5" y="596.0898">id_usuario : INT &#171;FK&#187;</text><g data-visibility-modifier="IE_MANDATORY"><ellipse cx="333.5" cy="609.0366" fill="#FFFFFF" rx="3" ry="3" style="stroke:#000000;stroke-width:1;"/></g><text fill="#000000" font-family="Verdana" font-size="14" lengthAdjust="spacing" textLength="281.0938" x="340.5" y="613.1045">token_firma : VARCHAR(255) &#171;Unique&#187;</text><g data-visibility-modifier="IE_MANDATORY"><ellipse cx="333.5" cy="626.0513" fill="#FFFFFF" rx="3" ry="3" style="stroke:#000000;stroke-width:1;"/></g><text fill="#000000" font-family="Verdana" font-size="14" lengthAdjust="spacing" textLength="194.4414" x="340.5" y="630.1191">fecha_creacion : DATETIME</text><g data-visibility-modifier="IE_MANDATORY"><ellipse cx="333.5" cy="643.0659" fill="#FFFFFF" rx="3" ry="3" style="stroke:#000000;stroke-width:1;"/></g><text fill="#000000" font-family="Verdana" font-size="14" lengthAdjust="spacing" textLength="251.959" x="340.5" y="647.1338">fecha_ultima_actividad : DATETIME</text><g data-visibility-modifier="IE_MANDATORY"><ellipse cx="333.5" cy="660.0806" fill="#FFFFFF" rx="3" ry="3" style="stroke:#000000;stroke-width:1;"/></g><text fill="#000000" font-family="Verdana" font-size="14" lengthAdjust="spacing" textLength="150.5684" x="340.5" y="664.1484">es_valida : BOOLEAN</text></g><!--class RegistroAccesos--><g class="entity" data-qualified-name="Seguridad y Auditor.a.RegistroAccesos" data-source-line="48" id="ent0008"><rect fill="#FFFFFF" height="146.0879" rx="2.5" ry="2.5" style="stroke:#000000;stroke-width:1;" width="234.7588" x="27.5" y="525"/><ellipse cx="84.3774" cy="539" fill="#FFFFFF" rx="9" ry="9" style="stroke:#000000;stroke-width:1;"/><path d="M80.1118,545 L80.1118,532.8281 L89.1431,532.8281 L89.1431,534.8906 L82.5649,534.8906 L82.5649,537.5938 L88.6743,537.5938 L88.6743,539.6406 L82.5649,539.6406 L82.5649,542.9531 L89.3774,542.9531 L89.3774,545 L80.1118,545 Z " fill="#000000"/><text fill="#000000" font-family="Verdana" font-size="14" lengthAdjust="spacing" textLength="113.5039" x="101.8774" y="544.5679">RegistroAccesos</text><line style="stroke:#000000;stroke-width:1;" x1="28.5" x2="261.2588" y1="553" y2="553"/><g data-visibility-modifier="IE_MANDATORY"><ellipse cx="38.5" cy="567.0073" fill="#FFFFFF" rx="3" ry="3" style="stroke:#000000;stroke-width:1;"/></g><text fill="#000000" font-family="Verdana" font-size="14" lengthAdjust="spacing" textLength="94.8691" x="45.5" y="571.0752">id : INT &#171;PK&#187;</text><line style="stroke:#000000;stroke-width:1;" x1="28.5" x2="261.2588" y1="578.0146" y2="578.0146"/><g data-visibility-modifier="IE_MANDATORY"><ellipse cx="38.5" cy="592.022" fill="#FFFFFF" rx="3" ry="3" style="stroke:#000000;stroke-width:1;"/></g><text fill="#000000" font-family="Verdana" font-size="14" lengthAdjust="spacing" textLength="155.1074" x="45.5" y="596.0898">id_usuario : INT &#171;FK&#187;</text><g data-visibility-modifier="IE_MANDATORY"><ellipse cx="38.5" cy="609.0366" fill="#FFFFFF" rx="3" ry="3" style="stroke:#000000;stroke-width:1;"/></g><text fill="#000000" font-family="Verdana" font-size="14" lengthAdjust="spacing" textLength="185.3633" x="45.5" y="613.1045">fecha_intento : DATETIME</text><g data-visibility-modifier="IE_MANDATORY"><ellipse cx="38.5" cy="626.0513" fill="#FFFFFF" rx="3" ry="3" style="stroke:#000000;stroke-width:1;"/></g><text fill="#000000" font-family="Verdana" font-size="14" lengthAdjust="spacing" textLength="165.8193" x="45.5" y="630.1191">fue_exitoso : BOOLEAN</text><text fill="#000000" font-family="Verdana" font-size="14" lengthAdjust="spacing" textLength="199.3223" x="45.5" y="647.1338">direccion_ip : VARCHAR(45)</text><text fill="#000000" font-family="Verdana" font-size="14" lengthAdjust="spacing" textLength="210.7588" x="45.5" y="664.1484">motivo_fallo : VARCHAR(100)</text></g><!--link Roles to Usuarios--><g class="link" data-entity-1="ent0003" data-entity-2="ent0005" data-link-type="crowfoot" data-source-line="60" id="lnk9"><path codeLine="60" d="M313,150 C313,171.92 313,172.99 313,199.8" fill="none" id="Roles-Usuarios" style="stroke:#000000;stroke-width:1;"/><line style="stroke:#000000;stroke-width:1;" x1="309" x2="317" y1="146" y2="146"/><line style="stroke:#000000;stroke-width:1;" x1="309" x2="317" y1="149" y2="149"/><line style="stroke:#000000;stroke-width:1;" x1="313" x2="313" y1="150" y2="142"/><line style="stroke:#000000;stroke-width:1;" x1="313" x2="319" y1="209.8" y2="217.8"/><line style="stroke:#000000;stroke-width:1;" x1="313" x2="307" y1="209.8" y2="217.8"/><line style="stroke:#000000;stroke-width:1;" x1="313" x2="313" y1="209.8" y2="217.8"/><ellipse cx="313" cy="203.8" fill="none" rx="4" ry="4" style="stroke:#000000;stroke-width:1;"/></g><!--link Usuarios to SesionesUsuario--><g class="link" data-entity-1="ent0005" data-entity-2="ent0007" data-link-type="crowfoot" data-source-line="61" id="lnk10"><path codeLine="61" d="M406,457.13 C406,482.85 406,483.41 406,506.86" fill="none" id="Usuarios-SesionesUsuario" style="stroke:#000000;stroke-width:1;"/><line style="stroke:#000000;stroke-width:1;" x1="402" x2="410" y1="453.13" y2="453.13"/><line style="stroke:#000000;stroke-width:1;" x1="402" x2="410" y1="456.13" y2="456.13"/><line style="stroke:#000000;stroke-width:1;" x1="406" x2="406" y1="457.13" y2="449.13"/><line style="stroke:#000000;stroke-width:1;" x1="406" x2="412" y1="516.86" y2="524.86"/><line style="stroke:#000000;stroke-width:1;" x1="406" x2="400" y1="516.86" y2="524.86"/><line style="stroke:#000000;stroke-width:1;" x1="406" x2="406" y1="516.86" y2="524.86"/><ellipse cx="406" cy="510.86" fill="none" rx="4" ry="4" style="stroke:#000000;stroke-width:1;"/></g><!--link Usuarios to RegistroAccesos--><g class="link" data-entity-1="ent0005" data-entity-2="ent0008" data-link-type="crowfoot" data-source-line="62" id="lnk11"><path codeLine="62" d="M199.5,457.13 C199.5,482.85 199.5,483.41 199.5,506.86" fill="none" id="Usuarios-RegistroAccesos" style="stroke:#000000;stroke-width:1;"/><line style="stroke:#000000;stroke-width:1;" x1="195.5" x2="203.5" y1="453.13" y2="453.13"/><line style="stroke:#000000;stroke-width:1;" x1="195.5" x2="203.5" y1="456.13" y2="456.13"/><line style="stroke:#000000;stroke-width:1;" x1="199.5" x2="199.5" y1="457.13" y2="449.13"/><line style="stroke:#000000;stroke-width:1;" x1="199.5" x2="205.5" y1="516.86" y2="524.86"/><line style="stroke:#000000;stroke-width:1;" x1="199.5" x2="193.5" y1="516.86" y2="524.86"/><line style="stroke:#000000;stroke-width:1;" x1="199.5" x2="199.5" y1="516.86" y2="524.86"/><ellipse cx="199.5" cy="510.86" fill="none" rx="4" ry="4" style="stroke:#000000;stroke-width:1;"/></g><?plantuml-src hLJRRjD047ttLmnvwKMAI2a1AQegfMqe5RH5ISEhDLrFabNi7RExBbHjFuOFu8bFw8ynliJO9YyW_99ePtRdd3DdveLVKKAGngXDuDRQf6WnWLWRylSf0Lk_uaR0S4IEKdWpQ1nQDElyyEqW259KQrmIz4xPUCinH0HZfSYnwy530FAHyThVmvHZSjLH_ks3Zc045rStS7JqwSFnSHtfz-k_Et2fBO-W9xVX7bAoYPQdyofOL84xZ7M4aPHhl6mukRKKvdX6y7ayFNq_dkuE1tjIQMxqbumQrOIWiZfLcaqZ-TLmk5UaF0LF3PRdvBn-_cbo01THpangTuZENOPMyrzppPCgo6NYksRY3indmuCHd5f2jO6WCgc9GD-qW7EaF5j0fvT6187TAIqavCaQtAlVARF2JLRO03OfS-DGBahb1Z35rXA7yfEoHQ_lk27LmM2xiFkGedDVsKRX2jrgcxYjRYbEqfXywsdfMIDHnCyXLwmRxqbMIwZ1mSlvx53KEebPG348R1Y2DbvkIcSM68jhsDMNDf5m4ob5gUEtnJjvSQ5Ir3uRtqnkBYudMqmoesLcSsE8OyTPf4Nlvn_OSScCd3YENEMMVp9BLjtTQfXzyBmc4owqJR0Z_lPsBKYjC5I5mOfXQ75iZUCL5v9PL5uWY3yCn0YOfeNIoVFtOaGF1v1eqvhCiaOMUvrWABVrNI7KbbfvkyDokYLySdtzSJA-gjHkxHLQQYUhfzew_r_8clIv94N2Lfi5YwRb56BcMVXwhJ0HH2ImuEIi1zwYWvYNicUxx2kpRIUzo2YKUHOlSeTsiQoq9PLt9zHfewUl6_EKS3wVXP6xK_hRg-KoVdpiz_cXNbX1lRcgGCUZVyGxqWU_0000?></g></svg>