<?plantuml 1.2026.2?><svg xmlns="http://www.w3.org/2000/svg" xmlns:xlink="http://www.w3.org/1999/xlink" contentStyleType="text/css" data-diagram-type="CLASS" height="804px" preserveAspectRatio="none" style="width:842px;height:804px;background:#FFFFFF;" version="1.1" viewBox="0 0 842 804" width="842px" zoomAndPan="magnify"><defs/><g><!--cluster Evaluaci?n Anal?tica (Motor IPERC)--><g class="cluster" data-qualified-name="Evaluaci.n Anal.tica .Motor IPERC." data-source-line="11" id="ent0002"><path d="M13.5,11 L291.6973,11 A3.75,3.75 0 0 1 294.1973,13.5 L301.1973,34.0146 L448.5,34.0146 A2.5,2.5 0 0 1 451,36.5146 L451,769 A2.5,2.5 0 0 1 448.5,771.5 L13.5,771.5 A2.5,2.5 0 0 1 11,769 L11,13.5 A2.5,2.5 0 0 1 13.5,11" fill="#FFFFFF" style="stroke:#000000;stroke-width:1;"/><line style="stroke:#000000;stroke-width:1;" x1="11" x2="301.1973" y1="34.0146" y2="34.0146"/><text fill="#000000" font-family="Verdana" font-size="14" font-weight="bold" lengthAdjust="spacing" textLength="277.1973" x="15" y="27.0752">Evaluaci&#243;n Anal&#237;tica (Motor IPERC)</text></g><!--cluster Inteligencia y Alertas Autom?ticas--><g class="cluster" data-qualified-name="Inteligencia y Alertas Autom.ticas" data-source-line="52" id="ent0006"><path d="M481.5,254 L754.2627,254 A3.75,3.75 0 0 1 756.7627,256.5 L763.7627,277.0146 L832.5,277.0146 A2.5,2.5 0 0 1 835,279.5146 L835,794.5 A2.5,2.5 0 0 1 832.5,797 L481.5,797 A2.5,2.5 0 0 1 479,794.5 L479,256.5 A2.5,2.5 0 0 1 481.5,254" fill="#FFFFFF" style="stroke:#000000;stroke-width:1;"/><line style="stroke:#000000;stroke-width:1;" x1="479" x2="763.7627" y1="277.0146" y2="277.0146"/><text fill="#000000" font-family="Verdana" font-size="14" font-weight="bold" lengthAdjust="spacing" textLength="271.7627" x="483" y="270.0752">Inteligencia y Alertas Autom&#225;ticas</text></g><!--class criticidad--><g class="entity" data-qualified-name="Evaluaci.n Anal.tica .Motor IPERC..criticidad" data-source-line="15" id="ent0003"><rect fill="#FFFFFF" height="129.0732" rx="2.5" ry="2.5" style="stroke:#000000;stroke-width:1;" width="344.168" x="91" y="47"/><ellipse cx="202.1206" cy="61" fill="#FFFFFF" rx="9" ry="9" style="stroke:#000000;stroke-width:1;"/><path d="M197.855,67 L197.855,54.8281 L206.8862,54.8281 L206.8862,56.8906 L200.3081,56.8906 L200.3081,59.5938 L206.4175,59.5938 L206.4175,61.6406 L200.3081,61.6406 L200.3081,64.9531 L207.1206,64.9531 L207.1206,67 L197.855,67 Z " fill="#000000"/><text fill="#000000" font-family="Verdana" font-size="14" lengthAdjust="spacing" textLength="114.4268" x="219.6206" y="66.5679">Criticidad_Areas</text><line style="stroke:#000000;stroke-width:1;" x1="92" x2="434.168" y1="75" y2="75"/><g data-visibility-modifier="IE_MANDATORY"><ellipse cx="102" cy="89.0073" fill="#FFFFFF" rx="3" ry="3" style="stroke:#000000;stroke-width:1;"/></g><text fill="#000000" font-family="Verdana" font-size="14" lengthAdjust="spacing" textLength="94.8691" x="109" y="93.0752">id : INT &#171;PK&#187;</text><line style="stroke:#000000;stroke-width:1;" x1="92" x2="434.168" y1="100.0146" y2="100.0146"/><g data-visibility-modifier="IE_MANDATORY"><ellipse cx="102" cy="114.022" fill="#FFFFFF" rx="3" ry="3" style="stroke:#000000;stroke-width:1;"/></g><text fill="#000000" font-family="Verdana" font-size="14" lengthAdjust="spacing" textLength="320.168" x="109" y="118.0898">sede_area_id : INT &#171;External_Ref&#187; &#171;Unique&#187;</text><text fill="#000000" font-family="Verdana" font-size="14" lengthAdjust="spacing" textLength="4.9219" x="109" y="135.1045">&#160;</text><g data-visibility-modifier="IE_MANDATORY"><ellipse cx="102" cy="148.0513" fill="#FFFFFF" rx="3" ry="3" style="stroke:#000000;stroke-width:1;"/></g><text fill="#000000" font-family="Verdana" font-size="14" lengthAdjust="spacing" textLength="257.7832" x="109" y="152.1191">puntaje_criticidad_actual : DECIMAL</text><text fill="#000000" font-family="Verdana" font-size="14" lengthAdjust="spacing" textLength="279.3438" x="109" y="169.1338">fecha_ultima_actualizacion : DATETIME</text></g><!--class iperc--><g class="entity" data-qualified-name="Evaluaci.n Anal.tica .Motor IPERC..iperc" data-source-line="24" id="ent0004"><rect fill="#FFFFFF" height="248.1758" rx="2.5" ry="2.5" style="stroke:#000000;stroke-width:1;" width="406.3477" x="29" y="256"/><ellipse cx="157.2344" cy="270" fill="#FFFFFF" rx="9" ry="9" style="stroke:#000000;stroke-width:1;"/><path d="M152.9688,276 L152.9688,263.8281 L162,263.8281 L162,265.8906 L155.4219,265.8906 L155.4219,268.5938 L161.5313,268.5938 L161.5313,270.6406 L155.4219,270.6406 L155.4219,273.9531 L162.2344,273.9531 L162.2344,276 L152.9688,276 Z " fill="#000000"/><text fill="#000000" font-family="Verdana" font-size="14" lengthAdjust="spacing" textLength="142.3789" x="174.7344" y="275.5679">Evaluaciones_IPERC</text><line style="stroke:#000000;stroke-width:1;" x1="30" x2="434.3477" y1="284" y2="284"/><g data-visibility-modifier="IE_MANDATORY"><ellipse cx="40" cy="298.0073" fill="#FFFFFF" rx="3" ry="3" style="stroke:#000000;stroke-width:1;"/></g><text fill="#000000" font-family="Verdana" font-size="14" lengthAdjust="spacing" textLength="94.8691" x="47" y="302.0752">id : INT &#171;PK&#187;</text><line style="stroke:#000000;stroke-width:1;" x1="30" x2="434.3477" y1="309.0146" y2="309.0146"/><g data-visibility-modifier="IE_MANDATORY"><ellipse cx="40" cy="323.022" fill="#FFFFFF" rx="3" ry="3" style="stroke:#000000;stroke-width:1;"/></g><text fill="#000000" font-family="Verdana" font-size="14" lengthAdjust="spacing" textLength="382.3477" x="47" y="327.0898">condicion_insegura_id : INT &#171;External_Ref&#187; &#171;Unique&#187;</text><g data-visibility-modifier="IE_MANDATORY"><ellipse cx="40" cy="340.0366" fill="#FFFFFF" rx="3" ry="3" style="stroke:#000000;stroke-width:1;"/></g><text fill="#000000" font-family="Verdana" font-size="14" lengthAdjust="spacing" textLength="206.8623" x="47" y="344.1045">criticidad_area_id : INT &#171;FK&#187;</text><text fill="#000000" font-family="Verdana" font-size="14" lengthAdjust="spacing" textLength="4.9219" x="47" y="361.1191">&#160;</text><g data-visibility-modifier="IE_MANDATORY"><ellipse cx="40" cy="374.0659" fill="#FFFFFF" rx="3" ry="3" style="stroke:#000000;stroke-width:1;"/></g><text fill="#000000" font-family="Verdana" font-size="14" lengthAdjust="spacing" textLength="171.5273" x="47" y="378.1338">valor_probabilidad : INT</text><g data-visibility-modifier="IE_MANDATORY"><ellipse cx="40" cy="391.0806" fill="#FFFFFF" rx="3" ry="3" style="stroke:#000000;stroke-width:1;"/></g><text fill="#000000" font-family="Verdana" font-size="14" lengthAdjust="spacing" textLength="153.0293" x="47" y="395.1484">valor_severidad : INT</text><g data-visibility-modifier="IE_MANDATORY"><ellipse cx="40" cy="408.0952" fill="#FFFFFF" rx="3" ry="3" style="stroke:#000000;stroke-width:1;"/></g><text fill="#000000" font-family="Verdana" font-size="14" lengthAdjust="spacing" textLength="166.8857" x="47" y="412.1631">nivel_riesgo_puro : INT</text><text fill="#000000" font-family="Verdana" font-size="14" lengthAdjust="spacing" textLength="4.9219" x="47" y="429.1777">&#160;</text><g data-visibility-modifier="IE_MANDATORY"><ellipse cx="40" cy="442.1245" fill="#FFFFFF" rx="3" ry="3" style="stroke:#000000;stroke-width:1;"/></g><text fill="#000000" font-family="Verdana" font-size="14" lengthAdjust="spacing" textLength="250.4004" x="47" y="446.1924">clasificacion_riesgo : VARCHAR(50)</text><g data-visibility-modifier="IE_MANDATORY"><ellipse cx="40" cy="459.1392" fill="#FFFFFF" rx="3" ry="3" style="stroke:#000000;stroke-width:1;"/></g><text fill="#000000" font-family="Verdana" font-size="14" lengthAdjust="spacing" textLength="170.543" x="47" y="463.207">es_tolerable : BOOLEAN</text><text fill="#000000" font-family="Verdana" font-size="14" lengthAdjust="spacing" textLength="4.9219" x="47" y="480.2217">&#160;</text><text fill="#000000" font-family="Verdana" font-size="14" lengthAdjust="spacing" textLength="239.1348" x="47" y="497.2363">fecha_procesamiento : DATETIME</text></g><!--class soluciones--><g class="entity" data-qualified-name="Evaluaci.n Anal.tica .Motor IPERC..soluciones" data-source-line="41" id="ent0005"><rect fill="#FFFFFF" height="146.0879" rx="2.5" ry="2.5" style="stroke:#000000;stroke-width:1;" width="408.46" x="27" y="609.5"/><ellipse cx="150.7158" cy="623.5" fill="#FFFFFF" rx="9" ry="9" style="stroke:#000000;stroke-width:1;"/><path d="M146.4502,629.5 L146.4502,617.3281 L155.4814,617.3281 L155.4814,619.3906 L148.9033,619.3906 L148.9033,622.0938 L155.0127,622.0938 L155.0127,624.1406 L148.9033,624.1406 L148.9033,627.4531 L155.7158,627.4531 L155.7158,629.5 L146.4502,629.5 Z " fill="#000000"/><text fill="#000000" font-family="Verdana" font-size="14" lengthAdjust="spacing" textLength="153.5283" x="168.2158" y="629.0679">Soluciones_Sugeridas</text><line style="stroke:#000000;stroke-width:1;" x1="28" x2="434.46" y1="637.5" y2="637.5"/><g data-visibility-modifier="IE_MANDATORY"><ellipse cx="38" cy="651.5073" fill="#FFFFFF" rx="3" ry="3" style="stroke:#000000;stroke-width:1;"/></g><text fill="#000000" font-family="Verdana" font-size="14" lengthAdjust="spacing" textLength="94.8691" x="45" y="655.5752">id : INT &#171;PK&#187;</text><line style="stroke:#000000;stroke-width:1;" x1="28" x2="434.46" y1="662.5146" y2="662.5146"/><g data-visibility-modifier="IE_MANDATORY"><ellipse cx="38" cy="676.522" fill="#FFFFFF" rx="3" ry="3" style="stroke:#000000;stroke-width:1;"/></g><text fill="#000000" font-family="Verdana" font-size="14" lengthAdjust="spacing" textLength="221.0811" x="45" y="680.5898">evaluacion_iperc_id : INT &#171;FK&#187;</text><text fill="#000000" font-family="Verdana" font-size="14" lengthAdjust="spacing" textLength="4.9219" x="45" y="697.6045">&#160;</text><g data-visibility-modifier="IE_MANDATORY"><ellipse cx="38" cy="710.5513" fill="#FFFFFF" rx="3" ry="3" style="stroke:#000000;stroke-width:1;"/></g><text fill="#000000" font-family="Verdana" font-size="14" lengthAdjust="spacing" textLength="191.1328" x="45" y="714.6191">descripcion_medida : TEXT</text><g data-visibility-modifier="IE_MANDATORY"><ellipse cx="38" cy="727.5659" fill="#FFFFFF" rx="3" ry="3" style="stroke:#000000;stroke-width:1;"/></g><text fill="#000000" font-family="Verdana" font-size="14" lengthAdjust="spacing" textLength="235.9219" x="45" y="731.6338">jerarquia_control : VARCHAR(50)</text><text fill="#000000" font-family="Verdana" font-size="14" lengthAdjust="spacing" textLength="384.46" x="45" y="748.6484">porcentaje_reduccion_estimado : DECIMAL &#171;Nullable&#187;</text></g><!--class patrones--><g class="entity" data-qualified-name="Inteligencia y Alertas Autom.ticas.patrones" data-source-line="54" id="ent0007"><rect fill="#FFFFFF" height="180.1172" rx="2.5" ry="2.5" style="stroke:#000000;stroke-width:1;" width="320.7412" x="495.5" y="290"/><ellipse cx="575.5444" cy="304" fill="#FFFFFF" rx="9" ry="9" style="stroke:#000000;stroke-width:1;"/><path d="M571.2788,310 L571.2788,297.8281 L580.3101,297.8281 L580.3101,299.8906 L573.7319,299.8906 L573.7319,302.5938 L579.8413,302.5938 L579.8413,304.6406 L573.7319,304.6406 L573.7319,307.9531 L580.5444,307.9531 L580.5444,310 L571.2788,310 Z " fill="#000000"/><text fill="#000000" font-family="Verdana" font-size="14" lengthAdjust="spacing" textLength="153.1523" x="593.0444" y="309.5679">Patrones_Recurrencia</text><line style="stroke:#000000;stroke-width:1;" x1="496.5" x2="815.2412" y1="318" y2="318"/><g data-visibility-modifier="IE_MANDATORY"><ellipse cx="506.5" cy="332.0073" fill="#FFFFFF" rx="3" ry="3" style="stroke:#000000;stroke-width:1;"/></g><text fill="#000000" font-family="Verdana" font-size="14" lengthAdjust="spacing" textLength="94.8691" x="513.5" y="336.0752">id : INT &#171;PK&#187;</text><line style="stroke:#000000;stroke-width:1;" x1="496.5" x2="815.2412" y1="343.0146" y2="343.0146"/><g data-visibility-modifier="IE_MANDATORY"><ellipse cx="506.5" cy="357.022" fill="#FFFFFF" rx="3" ry="3" style="stroke:#000000;stroke-width:1;"/></g><text fill="#000000" font-family="Verdana" font-size="14" lengthAdjust="spacing" textLength="206.8623" x="513.5" y="361.0898">criticidad_area_id : INT &#171;FK&#187;</text><text fill="#000000" font-family="Verdana" font-size="14" lengthAdjust="spacing" textLength="296.7412" x="513.5" y="378.1045">activo_id : INT &#171;External_Ref&#187; &#171;Nullable&#187;</text><text fill="#000000" font-family="Verdana" font-size="14" lengthAdjust="spacing" textLength="4.9219" x="513.5" y="395.1191">&#160;</text><g data-visibility-modifier="IE_MANDATORY"><ellipse cx="506.5" cy="408.0659" fill="#FFFFFF" rx="3" ry="3" style="stroke:#000000;stroke-width:1;"/></g><text fill="#000000" font-family="Verdana" font-size="14" lengthAdjust="spacing" textLength="257.6533" x="513.5" y="412.1338">descripcion_patron : VARCHAR(255)</text><g data-visibility-modifier="IE_MANDATORY"><ellipse cx="506.5" cy="425.0806" fill="#FFFFFF" rx="3" ry="3" style="stroke:#000000;stroke-width:1;"/></g><text fill="#000000" font-family="Verdana" font-size="14" lengthAdjust="spacing" textLength="190.5039" x="513.5" y="429.1484">cantidad_ocurrencias : INT</text><g data-visibility-modifier="IE_MANDATORY"><ellipse cx="506.5" cy="442.0952" fill="#FFFFFF" rx="3" ry="3" style="stroke:#000000;stroke-width:1;"/></g><text fill="#000000" font-family="Verdana" font-size="14" lengthAdjust="spacing" textLength="130.9561" x="513.5" y="446.1631">periodo_dias : INT</text><text fill="#000000" font-family="Verdana" font-size="14" lengthAdjust="spacing" textLength="202.6377" x="513.5" y="463.1777">fecha_deteccion : DATETIME</text></g><!--class alertas--><g class="entity" data-qualified-name="Inteligencia y Alertas Autom.ticas.alertas" data-source-line="67" id="ent0008"><rect fill="#FFFFFF" height="197.1318" rx="2.5" ry="2.5" style="stroke:#000000;stroke-width:1;" width="324.3779" x="495" y="584"/><ellipse cx="562.5483" cy="598" fill="#FFFFFF" rx="9" ry="9" style="stroke:#000000;stroke-width:1;"/><path d="M558.2827,604 L558.2827,591.8281 L567.314,591.8281 L567.314,593.8906 L560.7358,593.8906 L560.7358,596.5938 L566.8452,596.5938 L566.8452,598.6406 L560.7358,598.6406 L560.7358,601.9531 L567.5483,601.9531 L567.5483,604 L558.2827,604 Z " fill="#000000"/><text fill="#000000" font-family="Verdana" font-size="14" lengthAdjust="spacing" textLength="181.7813" x="580.0483" y="603.5679">Alertas_Riesgo_Operativo</text><line style="stroke:#000000;stroke-width:1;" x1="496" x2="818.3779" y1="612" y2="612"/><g data-visibility-modifier="IE_MANDATORY"><ellipse cx="506" cy="626.0073" fill="#FFFFFF" rx="3" ry="3" style="stroke:#000000;stroke-width:1;"/></g><text fill="#000000" font-family="Verdana" font-size="14" lengthAdjust="spacing" textLength="94.8691" x="513" y="630.0752">id : INT &#171;PK&#187;</text><line style="stroke:#000000;stroke-width:1;" x1="496" x2="818.3779" y1="637.0146" y2="637.0146"/><g data-visibility-modifier="IE_MANDATORY"><ellipse cx="506" cy="651.022" fill="#FFFFFF" rx="3" ry="3" style="stroke:#000000;stroke-width:1;"/></g><text fill="#000000" font-family="Verdana" font-size="14" lengthAdjust="spacing" textLength="206.8623" x="513" y="655.0898">criticidad_area_id : INT &#171;FK&#187;</text><text fill="#000000" font-family="Verdana" font-size="14" lengthAdjust="spacing" textLength="300.3779" x="513" y="672.1045">evaluacion_iperc_id : INT &#171;FK&#187; &#171;Nullable&#187;</text><text fill="#000000" font-family="Verdana" font-size="14" lengthAdjust="spacing" textLength="228.6484" x="513" y="689.1191">patron_id : INT &#171;FK&#187; &#171;Nullable&#187;</text><text fill="#000000" font-family="Verdana" font-size="14" lengthAdjust="spacing" textLength="4.9219" x="513" y="706.1338">&#160;</text><g data-visibility-modifier="IE_MANDATORY"><ellipse cx="506" cy="719.0806" fill="#FFFFFF" rx="3" ry="3" style="stroke:#000000;stroke-width:1;"/></g><text fill="#000000" font-family="Verdana" font-size="14" lengthAdjust="spacing" textLength="160.9658" x="513" y="723.1484">mensaje_alerta : TEXT</text><g data-visibility-modifier="IE_MANDATORY"><ellipse cx="506" cy="736.0952" fill="#FFFFFF" rx="3" ry="3" style="stroke:#000000;stroke-width:1;"/></g><text fill="#000000" font-family="Verdana" font-size="14" lengthAdjust="spacing" textLength="217.5605" x="513" y="740.1631">nivel_urgencia : VARCHAR(20)</text><g data-visibility-modifier="IE_MANDATORY"><ellipse cx="506" cy="753.1099" fill="#FFFFFF" rx="3" ry="3" style="stroke:#000000;stroke-width:1;"/></g><text fill="#000000" font-family="Verdana" font-size="14" lengthAdjust="spacing" textLength="211.3604" x="513" y="757.1777">estado_alerta : VARCHAR(20)</text><text fill="#000000" font-family="Verdana" font-size="14" lengthAdjust="spacing" textLength="190.2236" x="513" y="774.1924">fecha_emision : DATETIME</text></g><!--link criticidad to iperc--><g class="link" data-entity-1="ent0003" data-entity-2="ent0004" data-link-type="crowfoot" data-source-line="87" id="lnk9"><path codeLine="87" d="M263,184.15 C263,208.21 263,210.38 263,237.97" fill="none" id="criticidad-iperc" style="stroke:#000000;stroke-width:1;"/><line style="stroke:#000000;stroke-width:1;" x1="259" x2="267" y1="180.15" y2="180.15"/><line style="stroke:#000000;stroke-width:1;" x1="259" x2="267" y1="183.15" y2="183.15"/><line style="stroke:#000000;stroke-width:1;" x1="263" x2="263" y1="184.15" y2="176.15"/><line style="stroke:#000000;stroke-width:1;" x1="263" x2="269" y1="247.97" y2="255.97"/><line style="stroke:#000000;stroke-width:1;" x1="263" x2="257" y1="247.97" y2="255.97"/><line style="stroke:#000000;stroke-width:1;" x1="263" x2="263" y1="247.97" y2="255.97"/><ellipse cx="263" cy="241.97" fill="none" rx="4" ry="4" style="stroke:#000000;stroke-width:1;"/><text fill="#000000" font-family="Verdana" font-size="13" lengthAdjust="spacing" textLength="137.6743" x="125" y="213.1298">agrupa_evaluaciones</text></g><!--link criticidad to patrones--><g class="link" data-entity-1="ent0003" data-entity-2="ent0007" data-link-type="crowfoot" data-source-line="88" id="lnk10"><path codeLine="88" d="M443.09,133 C548.76,133 656,133 656,133 C656,133 656,201.22 656,271.78" fill="none" id="criticidad-patrones" style="stroke:#000000;stroke-width:1;"/><line style="stroke:#000000;stroke-width:1;" x1="439.09" x2="439.09" y1="137" y2="129"/><line style="stroke:#000000;stroke-width:1;" x1="442.09" x2="442.09" y1="137" y2="129"/><line style="stroke:#000000;stroke-width:1;" x1="443.09" x2="435.09" y1="133" y2="133"/><line style="stroke:#000000;stroke-width:1;" x1="656" x2="662" y1="281.78" y2="289.78"/><line style="stroke:#000000;stroke-width:1;" x1="656" x2="650" y1="281.78" y2="289.78"/><line style="stroke:#000000;stroke-width:1;" x1="656" x2="656" y1="281.78" y2="289.78"/><ellipse cx="656" cy="275.78" fill="none" rx="4" ry="4" style="stroke:#000000;stroke-width:1;"/><text fill="#000000" font-family="Verdana" font-size="13" lengthAdjust="spacing" textLength="115.686" x="507.93" y="130.0698">registra_patrones</text></g><!--link criticidad to alertas--><g class="link" data-entity-1="ent0003" data-entity-2="ent0008" data-link-type="crowfoot" data-source-line="89" id="lnk11"><path codeLine="89" d="M443.19,90 C461.15,90 465,90 465,90 C465,90 465,597 465,597 C465,597 458.81,597 476.58,597" fill="none" id="criticidad-alertas" style="stroke:#000000;stroke-width:1;"/><line style="stroke:#000000;stroke-width:1;" x1="439.19" x2="439.19" y1="94" y2="86"/><line style="stroke:#000000;stroke-width:1;" x1="442.19" x2="442.19" y1="94" y2="86"/><line style="stroke:#000000;stroke-width:1;" x1="443.19" x2="435.19" y1="90" y2="90"/><line style="stroke:#000000;stroke-width:1;" x1="486.58" x2="494.58" y1="597" y2="591"/><line style="stroke:#000000;stroke-width:1;" x1="486.58" x2="494.58" y1="597" y2="603"/><line style="stroke:#000000;stroke-width:1;" x1="486.58" x2="494.58" y1="597" y2="597"/><ellipse cx="480.58" cy="597" fill="none" rx="4" ry="4" style="stroke:#000000;stroke-width:1;"/><text fill="#000000" font-family="Verdana" font-size="13" lengthAdjust="spacing" textLength="89.4575" x="420.5" y="357.4598">emite_alertas</text></g><!--link iperc to soluciones--><g class="link" data-entity-1="ent0004" data-entity-2="ent0005" data-link-type="crowfoot" data-source-line="92" id="lnk12"><path codeLine="92" d="M232,512.35 C232,548.04 232,559.79 232,591.31" fill="none" id="iperc-soluciones" style="stroke:#000000;stroke-width:1;"/><line style="stroke:#000000;stroke-width:1;" x1="228" x2="236" y1="508.35" y2="508.35"/><line style="stroke:#000000;stroke-width:1;" x1="228" x2="236" y1="511.35" y2="511.35"/><line style="stroke:#000000;stroke-width:1;" x1="232" x2="232" y1="512.35" y2="504.35"/><line style="stroke:#000000;stroke-width:1;" x1="232" x2="238" y1="601.31" y2="609.31"/><line style="stroke:#000000;stroke-width:1;" x1="232" x2="226" y1="601.31" y2="609.31"/><line style="stroke:#000000;stroke-width:1;" x1="232" x2="232" y1="601.31" y2="609.31"/><ellipse cx="232" cy="595.31" fill="none" rx="4" ry="4" style="stroke:#000000;stroke-width:1;"/><text fill="#000000" font-family="Verdana" font-size="13" lengthAdjust="spacing" textLength="53.498" x="178" y="553.8998">propone</text></g><!--link iperc to alertas--><g class="link" data-entity-1="ent0004" data-entity-2="ent0008" data-link-type="crowfoot" data-source-line="93" id="lnk13"><path codeLine="93" d="M443.14,487 C529.43,487 602.5,487 602.5,487 C602.5,487 602.5,517.3 602.5,565.89" fill="none" id="iperc-alertas" style="stroke:#000000;stroke-width:1;"/><line style="stroke:#000000;stroke-width:1;" x1="439.14" x2="439.14" y1="491" y2="483"/><line style="stroke:#000000;stroke-width:1;" x1="442.14" x2="442.14" y1="491" y2="483"/><line style="stroke:#000000;stroke-width:1;" x1="443.14" x2="435.14" y1="487" y2="487"/><line style="stroke:#000000;stroke-width:1;" x1="602.5" x2="608.5" y1="575.89" y2="583.89"/><line style="stroke:#000000;stroke-width:1;" x1="602.5" x2="596.5" y1="575.89" y2="583.89"/><line style="stroke:#000000;stroke-width:1;" x1="602.5" x2="602.5" y1="575.89" y2="583.89"/><ellipse cx="602.5" cy="569.89" fill="none" rx="4" ry="4" style="stroke:#000000;stroke-width:1;"/><text fill="#000000" font-family="Verdana" font-size="13" lengthAdjust="spacing" textLength="101.4292" x="465.26" y="484.0698">puede_disparar</text></g><!--link patrones to alertas--><g class="link" data-entity-1="ent0007" data-entity-2="ent0008" data-link-type="crowfoot" data-source-line="94" id="lnk14"><path codeLine="94" d="M709.5,478.35 C709.5,514.13 709.5,529.36 709.5,565.91" fill="none" id="patrones-alertas" style="stroke:#000000;stroke-width:1;"/><line style="stroke:#000000;stroke-width:1;" x1="705.5" x2="713.5" y1="474.35" y2="474.35"/><line style="stroke:#000000;stroke-width:1;" x1="705.5" x2="713.5" y1="477.35" y2="477.35"/><line style="stroke:#000000;stroke-width:1;" x1="709.5" x2="709.5" y1="478.35" y2="470.35"/><line style="stroke:#000000;stroke-width:1;" x1="709.5" x2="715.5" y1="575.91" y2="583.91"/><line style="stroke:#000000;stroke-width:1;" x1="709.5" x2="703.5" y1="575.91" y2="583.91"/><line style="stroke:#000000;stroke-width:1;" x1="709.5" x2="709.5" y1="575.91" y2="583.91"/><ellipse cx="709.5" cy="569.91" fill="none" rx="4" ry="4" style="stroke:#000000;stroke-width:1;"/><text fill="#000000" font-family="Verdana" font-size="13" lengthAdjust="spacing" textLength="101.4292" x="607.5" y="524.1998">puede_disparar</text></g><?plantuml-src hLPDR-Cs4BthLqnrYLCWRL0WHM5i0wYsqWhn5sJleZq9Z3HnkA59XQICJNTpw0_eQN_17dlegRTUzSSw-h32nDuaRgk3aOYFevdtvWtvXRt25K8k69UUkUOoPvgjG729zZP7KDfUAMT1gWmDvl3jiVDICtbTlVpksFCEuFiNFmGUbn-7hqVJFeodYsaCipWSHeD5z6OAly0mX3WAvpzEeHVDmdXmk5zmBsVfDLiY-E6QYOAblFnBGY2PAF-qF6NG6okhD3InVNZlUK3F0GHNIZD0O-b7Mfwn35XgoxyPf6gb00NuCvPfz253i2fJ5HPfKLfyPzLNRPW1RTPCy5yPCBWfoZzWZXb-NVwcaO4Wpb5Rb9YY1A4CQ8vcgKopk_gklGL_e3cbMgMG1BJD-C0CfDrBoXdQvqlW6VGXcYpWrQlP-Ubfjt9qv80CfP0m2fKuyF2THKsy935UdfxIYzUItnH8CPoTUI4jUul9_TSJOgLWWi8Cmq4q3aOT-XBJAvOKml8LQr54GygLhC318bn4ux16ttaFwjqefIIQf1QchfWJL-d-nP8Y6Q-29LmQN1RwXLLl8Xn078w2GLH-dC0mYiF18kZ3YBh2wQTEHI0cw9zBBggsS3JAg67AJqIvcvb3uYCnpiuVyaxVKZh9jRfW5rpK4Mle5iJW6lNETSdNA9AcmPAyqAf5k0a9PlWbkQAcgu4IwaqG3tuAujx9yQ439csi4gZP1RLn7twOJaTXCF4UoKyffsZOYfEuwXdTvqeKhUhpObcNqVIwwHRsbn-xPahg1dgAPPfgf4bUWrUOqVS9kWX_TcbyInNhcuApfBAwLk8p1ELAawbhisZCYhGEIYE2p92fUxTG5fD2Y8h4je8xxywPMX6D4y6NA5FEu1O28jmI8q5XrQhyL4qmqmsj3OypHdbLBCQO5bhNUsiUytPXNnPtMY0KTRog_Gt2cikq4DMGev__sFSR9CqClbPFkjNXxZCwDZKx8drpSkAsSSgQwPweZYkpvHrg74uZFics5vispz1Y-eBHrkgNn8qDfnIOLKNMyh1MtFz37HfGJJWmJDHd66oK8FwRi-zVIFAScxRRkVP2hS7JM2UP5KfJ-QOjOCk2pIGhTEiAHzf70ygIrUwZx48rwk6AcvtQtUrzbMcac4x2EPoLly-ZGJ27tfdIo9SIpl7MG6YivYdflEzDXeAZQ8_5giNfW26lMUAFTNUHtkExmg7dcF73XwCZzRuzIFlWiwKkSYhVEM_z7VXkRD0MZKjE1R1aytBNXaqZ4vwejHib2Vkm22vhErVLLAKu9whNvDZ6S-O_XQGZ9QU__OSOvvjvKTrlCcwgYwdslIx_vw7_0000?></g></svg>