<?plantuml 1.2026.2?><svg xmlns="http://www.w3.org/2000/svg" xmlns:xlink="http://www.w3.org/1999/xlink" contentStyleType="text/css" data-diagram-type="CLASS" height="476px" preserveAspectRatio="none" style="width:2578px;height:476px;background:#FFFFFF;" version="1.1" viewBox="0 0 2578 476" width="2578px" zoomAndPan="magnify"><defs/><g><!--cluster Gesti?n de Reportes Mensuales--><g class="cluster" data-qualified-name="Gesti.n de Reportes Mensuales" data-source-line="11" id="ent0002"><path d="M13.5,11 L260.792,11 A3.75,3.75 0 0 1 263.292,13.5 L270.292,34.0146 L556.5,34.0146 A2.5,2.5 0 0 1 559,36.5146 L559,466.5 A2.5,2.5 0 0 1 556.5,469 L13.5,469 A2.5,2.5 0 0 1 11,466.5 L11,13.5 A2.5,2.5 0 0 1 13.5,11" fill="#FFFFFF" style="stroke:#000000;stroke-width:1;"/><line style="stroke:#000000;stroke-width:1;" x1="11" x2="270.292" y1="34.0146" y2="34.0146"/><text fill="#000000" font-family="Verdana" font-size="14" font-weight="bold" lengthAdjust="spacing" textLength="246.292" x="15" y="27.0752">Gesti&#243;n de Reportes Mensuales</text></g><!--cluster C?lculo de M?tricas y Tendencias--><g class="cluster" data-qualified-name="C.lculo de M.tricas y Tendencias" data-source-line="38" id="ent0005"><path d="M585.5,254 L845.8486,254 A3.75,3.75 0 0 1 848.3486,256.5 L855.3486,277.0146 L1576.5,277.0146 A2.5,2.5 0 0 1 1579,279.5146 L1579,466.5 A2.5,2.5 0 0 1 1576.5,469 L585.5,469 A2.5,2.5 0 0 1 583,466.5 L583,256.5 A2.5,2.5 0 0 1 585.5,254" fill="#FFFFFF" style="stroke:#000000;stroke-width:1;"/><line style="stroke:#000000;stroke-width:1;" x1="583" x2="855.3486" y1="277.0146" y2="277.0146"/><text fill="#000000" font-family="Verdana" font-size="14" font-weight="bold" lengthAdjust="spacing" textLength="259.3486" x="587" y="270.0752">C&#225;lculo de M&#233;tricas y Tendencias</text></g><!--cluster Auditor?a Legal y Archivo--><g class="cluster" data-qualified-name="Auditor.a Legal y Archivo" data-source-line="65" id="ent0008"><path d="M1609.5,254 L1808.1475,254 A3.75,3.75 0 0 1 1810.6475,256.5 L1817.6475,277.0146 L2568.5,277.0146 A2.5,2.5 0 0 1 2571,279.5146 L2571,466.5 A2.5,2.5 0 0 1 2568.5,469 L1609.5,469 A2.5,2.5 0 0 1 1607,466.5 L1607,256.5 A2.5,2.5 0 0 1 1609.5,254" fill="#FFFFFF" style="stroke:#000000;stroke-width:1;"/><line style="stroke:#000000;stroke-width:1;" x1="1607" x2="1817.6475" y1="277.0146" y2="277.0146"/><text fill="#000000" font-family="Verdana" font-size="14" font-weight="bold" lengthAdjust="spacing" textLength="197.6475" x="1611" y="270.0752">Auditor&#237;a Legal y Archivo</text></g><!--class reportes--><g class="entity" data-qualified-name="Gesti.n de Reportes Mensuales.reportes" data-source-line="14" id="ent0003"><rect fill="#FFFFFF" height="163.1025" rx="2.5" ry="2.5" style="stroke:#000000;stroke-width:1;" width="515.4902" x="27.5" y="47"/><ellipse cx="169.2866" cy="61" fill="#FFFFFF" rx="9" ry="9" style="stroke:#000000;stroke-width:1;"/><path d="M165.021,67 L165.021,54.8281 L174.0522,54.8281 L174.0522,56.8906 L167.4741,56.8906 L167.4741,59.5938 L173.5835,59.5938 L173.5835,61.6406 L167.4741,61.6406 L167.4741,64.9531 L174.2866,64.9531 L174.2866,67 L165.021,67 Z " fill="#000000"/><text fill="#000000" font-family="Verdana" font-size="14" lengthAdjust="spacing" textLength="224.417" x="186.7866" y="66.5679">Reportes_Mensuales_Seguridad</text><line style="stroke:#000000;stroke-width:1;" x1="28.5" x2="541.9902" y1="75" y2="75"/><g data-visibility-modifier="IE_MANDATORY"><ellipse cx="38.5" cy="89.0073" fill="#FFFFFF" rx="3" ry="3" style="stroke:#000000;stroke-width:1;"/></g><text fill="#000000" font-family="Verdana" font-size="14" lengthAdjust="spacing" textLength="94.8691" x="45.5" y="93.0752">id : INT &#171;PK&#187;</text><line style="stroke:#000000;stroke-width:1;" x1="28.5" x2="541.9902" y1="100.0146" y2="100.0146"/><g data-visibility-modifier="IE_MANDATORY"><ellipse cx="38.5" cy="114.022" fill="#FFFFFF" rx="3" ry="3" style="stroke:#000000;stroke-width:1;"/></g><text fill="#000000" font-family="Verdana" font-size="14" lengthAdjust="spacing" textLength="142.707" x="45.5" y="118.0898">mes_evaluado : INT</text><g data-visibility-modifier="IE_MANDATORY"><ellipse cx="38.5" cy="131.0366" fill="#FFFFFF" rx="3" ry="3" style="stroke:#000000;stroke-width:1;"/></g><text fill="#000000" font-family="Verdana" font-size="14" lengthAdjust="spacing" textLength="143.0625" x="45.5" y="135.1045">anio_evaluado : INT</text><text fill="#000000" font-family="Verdana" font-size="14" lengthAdjust="spacing" textLength="327.626" x="45.5" y="152.1191">sede_area_id : INT &#171;External_Ref&#187; &#171;Nullable&#187;</text><text fill="#000000" font-family="Verdana" font-size="14" lengthAdjust="spacing" textLength="4.9219" x="45.5" y="169.1338">&#160;</text><g data-visibility-modifier="IE_MANDATORY"><ellipse cx="38.5" cy="182.0806" fill="#FFFFFF" rx="3" ry="3" style="stroke:#000000;stroke-width:1;"/></g><text fill="#000000" font-family="Verdana" font-size="14" lengthAdjust="spacing" textLength="491.4902" x="45.5" y="186.1484">estado_general : VARCHAR(30) ' Ej: En Proceso, Revisado, Archivado</text><text fill="#000000" font-family="Verdana" font-size="14" lengthAdjust="spacing" textLength="194.4414" x="45.5" y="203.1631">fecha_creacion : DATETIME</text></g><!--class resumenes--><g class="entity" data-qualified-name="Gesti.n de Reportes Mensuales.resumenes" data-source-line="26" id="ent0004"><rect fill="#FFFFFF" height="163.1025" rx="2.5" ry="2.5" style="stroke:#000000;stroke-width:1;" width="494.1689" x="38" y="290"/><ellipse cx="200.7456" cy="304" fill="#FFFFFF" rx="9" ry="9" style="stroke:#000000;stroke-width:1;"/><path d="M196.48,310 L196.48,297.8281 L205.5112,297.8281 L205.5112,299.8906 L198.9331,299.8906 L198.9331,302.5938 L205.0425,302.5938 L205.0425,304.6406 L198.9331,304.6406 L198.9331,307.9531 L205.7456,307.9531 L205.7456,310 L196.48,310 Z " fill="#000000"/><text fill="#000000" font-family="Verdana" font-size="14" lengthAdjust="spacing" textLength="161.1777" x="218.2456" y="309.5679">Resumenes_Ejecutivos</text><line style="stroke:#000000;stroke-width:1;" x1="39" x2="531.1689" y1="318" y2="318"/><g data-visibility-modifier="IE_MANDATORY"><ellipse cx="49" cy="332.0073" fill="#FFFFFF" rx="3" ry="3" style="stroke:#000000;stroke-width:1;"/></g><text fill="#000000" font-family="Verdana" font-size="14" lengthAdjust="spacing" textLength="94.8691" x="56" y="336.0752">id : INT &#171;PK&#187;</text><line style="stroke:#000000;stroke-width:1;" x1="39" x2="531.1689" y1="343.0146" y2="343.0146"/><g data-visibility-modifier="IE_MANDATORY"><ellipse cx="49" cy="357.022" fill="#FFFFFF" rx="3" ry="3" style="stroke:#000000;stroke-width:1;"/></g><text fill="#000000" font-family="Verdana" font-size="14" lengthAdjust="spacing" textLength="294.6973" x="56" y="361.0898">reporte_mensual_id : INT &#171;FK&#187; &#171;Unique&#187;</text><text fill="#000000" font-family="Verdana" font-size="14" lengthAdjust="spacing" textLength="4.9219" x="56" y="378.1045">&#160;</text><g data-visibility-modifier="IE_MANDATORY"><ellipse cx="49" cy="391.0513" fill="#FFFFFF" rx="3" ry="3" style="stroke:#000000;stroke-width:1;"/></g><text fill="#000000" font-family="Verdana" font-size="14" lengthAdjust="spacing" textLength="195.0908" x="56" y="395.1191">contenido_generado : TEXT</text><text fill="#000000" font-family="Verdana" font-size="14" lengthAdjust="spacing" textLength="346.3564" x="56" y="412.1338">revisado_por_id : INT &#171;External_Ref&#187; &#171;Nullable&#187;</text><g data-visibility-modifier="IE_MANDATORY"><ellipse cx="49" cy="425.0806" fill="#FFFFFF" rx="3" ry="3" style="stroke:#000000;stroke-width:1;"/></g><text fill="#000000" font-family="Verdana" font-size="14" lengthAdjust="spacing" textLength="470.1689" x="56" y="429.1484">estado_revision : VARCHAR(20) ' Generado, Aprobado, Rechazado</text><text fill="#000000" font-family="Verdana" font-size="14" lengthAdjust="spacing" textLength="270.1631" x="56" y="446.1631">fecha_revision : DATETIME &#171;Nullable&#187;</text></g><!--class kpis--><g class="entity" data-qualified-name="C.lculo de M.tricas y Tendencias.kpis" data-source-line="41" id="ent0006"><rect fill="#FFFFFF" height="163.1025" rx="2.5" ry="2.5" style="stroke:#000000;stroke-width:1;" width="492.4326" x="1071" y="290"/><ellipse cx="1256.0752" cy="304" fill="#FFFFFF" rx="9" ry="9" style="stroke:#000000;stroke-width:1;"/><path d="M1251.8096,310 L1251.8096,297.8281 L1260.8408,297.8281 L1260.8408,299.8906 L1254.2627,299.8906 L1254.2627,302.5938 L1260.3721,302.5938 L1260.3721,304.6406 L1254.2627,304.6406 L1254.2627,307.9531 L1261.0752,307.9531 L1261.0752,310 L1251.8096,310 Z " fill="#000000"/><text fill="#000000" font-family="Verdana" font-size="14" lengthAdjust="spacing" textLength="114.7822" x="1273.5752" y="309.5679">Indicadores_KPI</text><line style="stroke:#000000;stroke-width:1;" x1="1072" x2="1562.4326" y1="318" y2="318"/><g data-visibility-modifier="IE_MANDATORY"><ellipse cx="1082" cy="332.0073" fill="#FFFFFF" rx="3" ry="3" style="stroke:#000000;stroke-width:1;"/></g><text fill="#000000" font-family="Verdana" font-size="14" lengthAdjust="spacing" textLength="94.8691" x="1089" y="336.0752">id : INT &#171;PK&#187;</text><line style="stroke:#000000;stroke-width:1;" x1="1072" x2="1562.4326" y1="343.0146" y2="343.0146"/><g data-visibility-modifier="IE_MANDATORY"><ellipse cx="1082" cy="357.022" fill="#FFFFFF" rx="3" ry="3" style="stroke:#000000;stroke-width:1;"/></g><text fill="#000000" font-family="Verdana" font-size="14" lengthAdjust="spacing" textLength="294.6973" x="1089" y="361.0898">reporte_mensual_id : INT &#171;FK&#187; &#171;Unique&#187;</text><text fill="#000000" font-family="Verdana" font-size="14" lengthAdjust="spacing" textLength="4.9219" x="1089" y="378.1045">&#160;</text><g data-visibility-modifier="IE_MANDATORY"><ellipse cx="1082" cy="391.0513" fill="#FFFFFF" rx="3" ry="3" style="stroke:#000000;stroke-width:1;"/></g><text fill="#000000" font-family="Verdana" font-size="14" lengthAdjust="spacing" textLength="223.3779" x="1089" y="395.1191">indice_siniestralidad : DECIMAL</text><g data-visibility-modifier="IE_MANDATORY"><ellipse cx="1082" cy="408.0659" fill="#FFFFFF" rx="3" ry="3" style="stroke:#000000;stroke-width:1;"/></g><text fill="#000000" font-family="Verdana" font-size="14" lengthAdjust="spacing" textLength="277.0811" x="1089" y="412.1338">cantidad_errores_administrativos : INT</text><g data-visibility-modifier="IE_MANDATORY"><ellipse cx="1082" cy="425.0806" fill="#FFFFFF" rx="3" ry="3" style="stroke:#000000;stroke-width:1;"/></g><text fill="#000000" font-family="Verdana" font-size="14" lengthAdjust="spacing" textLength="468.4326" x="1089" y="429.1484">procesado_por_ia : BOOLEAN ' Validar si el c&#225;lculo fue autom&#225;tico</text><text fill="#000000" font-family="Verdana" font-size="14" lengthAdjust="spacing" textLength="183.9688" x="1089" y="446.1631">fecha_calculo : DATETIME</text></g><!--class graficas--><g class="entity" data-qualified-name="C.lculo de M.tricas y Tendencias.graficas" data-source-line="53" id="ent0007"><rect fill="#FFFFFF" height="163.1025" rx="2.5" ry="2.5" style="stroke:#000000;stroke-width:1;" width="410.873" x="599.5" y="290"/><ellipse cx="732.5913" cy="304" fill="#FFFFFF" rx="9" ry="9" style="stroke:#000000;stroke-width:1;"/><path d="M728.3257,310 L728.3257,297.8281 L737.3569,297.8281 L737.3569,299.8906 L730.7788,299.8906 L730.7788,302.5938 L736.8882,302.5938 L736.8882,304.6406 L730.7788,304.6406 L730.7788,307.9531 L737.5913,307.9531 L737.5913,310 L728.3257,310 Z " fill="#000000"/><text fill="#000000" font-family="Verdana" font-size="14" lengthAdjust="spacing" textLength="137.1904" x="750.0913" y="309.5679">Graficas_Tendencia</text><line style="stroke:#000000;stroke-width:1;" x1="600.5" x2="1009.373" y1="318" y2="318"/><g data-visibility-modifier="IE_MANDATORY"><ellipse cx="610.5" cy="332.0073" fill="#FFFFFF" rx="3" ry="3" style="stroke:#000000;stroke-width:1;"/></g><text fill="#000000" font-family="Verdana" font-size="14" lengthAdjust="spacing" textLength="94.8691" x="617.5" y="336.0752">id : INT &#171;PK&#187;</text><line style="stroke:#000000;stroke-width:1;" x1="600.5" x2="1009.373" y1="343.0146" y2="343.0146"/><g data-visibility-modifier="IE_MANDATORY"><ellipse cx="610.5" cy="357.022" fill="#FFFFFF" rx="3" ry="3" style="stroke:#000000;stroke-width:1;"/></g><text fill="#000000" font-family="Verdana" font-size="14" lengthAdjust="spacing" textLength="222.8584" x="617.5" y="361.0898">reporte_mensual_id : INT &#171;FK&#187;</text><text fill="#000000" font-family="Verdana" font-size="14" lengthAdjust="spacing" textLength="4.9219" x="617.5" y="378.1045">&#160;</text><g data-visibility-modifier="IE_MANDATORY"><ellipse cx="610.5" cy="391.0513" fill="#FFFFFF" rx="3" ry="3" style="stroke:#000000;stroke-width:1;"/></g><text fill="#000000" font-family="Verdana" font-size="14" lengthAdjust="spacing" textLength="386.873" x="617.5" y="395.1191">proveedor_servicio : VARCHAR(50) ' Ej: Google Charts</text><g data-visibility-modifier="IE_MANDATORY"><ellipse cx="610.5" cy="408.0659" fill="#FFFFFF" rx="3" ry="3" style="stroke:#000000;stroke-width:1;"/></g><text fill="#000000" font-family="Verdana" font-size="14" lengthAdjust="spacing" textLength="291.2656" x="617.5" y="412.1338">url_grafico_renderizado : VARCHAR(255)</text><text fill="#000000" font-family="Verdana" font-size="14" lengthAdjust="spacing" textLength="204.5176" x="617.5" y="429.1484">json_datos_historicos : TEXT</text><text fill="#000000" font-family="Verdana" font-size="14" lengthAdjust="spacing" textLength="226.3584" x="617.5" y="446.1631">fecha_actualizacion : DATETIME</text></g><!--class auditorias--><g class="entity" data-qualified-name="Auditor.a Legal y Archivo.auditorias" data-source-line="68" id="ent0009"><rect fill="#FFFFFF" height="163.1025" rx="2.5" ry="2.5" style="stroke:#000000;stroke-width:1;" width="294.5322" x="2259.5" y="290"/><ellipse cx="2314.6377" cy="304" fill="#FFFFFF" rx="9" ry="9" style="stroke:#000000;stroke-width:1;"/><path d="M2310.3721,310 L2310.3721,297.8281 L2319.4033,297.8281 L2319.4033,299.8906 L2312.8252,299.8906 L2312.8252,302.5938 L2318.9346,302.5938 L2318.9346,304.6406 L2312.8252,304.6406 L2312.8252,307.9531 L2319.6377,307.9531 L2319.6377,310 L2310.3721,310 Z " fill="#000000"/><text fill="#000000" font-family="Verdana" font-size="14" lengthAdjust="spacing" textLength="176.7568" x="2332.1377" y="309.5679">Auditorias_Cumplimiento</text><line style="stroke:#000000;stroke-width:1;" x1="2260.5" x2="2553.0322" y1="318" y2="318"/><g data-visibility-modifier="IE_MANDATORY"><ellipse cx="2270.5" cy="332.0073" fill="#FFFFFF" rx="3" ry="3" style="stroke:#000000;stroke-width:1;"/></g><text fill="#000000" font-family="Verdana" font-size="14" lengthAdjust="spacing" textLength="94.8691" x="2277.5" y="336.0752">id : INT &#171;PK&#187;</text><line style="stroke:#000000;stroke-width:1;" x1="2260.5" x2="2553.0322" y1="343.0146" y2="343.0146"/><g data-visibility-modifier="IE_MANDATORY"><ellipse cx="2270.5" cy="357.022" fill="#FFFFFF" rx="3" ry="3" style="stroke:#000000;stroke-width:1;"/></g><text fill="#000000" font-family="Verdana" font-size="14" lengthAdjust="spacing" textLength="222.8584" x="2277.5" y="361.0898">reporte_mensual_id : INT &#171;FK&#187;</text><text fill="#000000" font-family="Verdana" font-size="14" lengthAdjust="spacing" textLength="4.9219" x="2277.5" y="378.1045">&#160;</text><g data-visibility-modifier="IE_MANDATORY"><ellipse cx="2270.5" cy="391.0513" fill="#FFFFFF" rx="3" ry="3" style="stroke:#000000;stroke-width:1;"/></g><text fill="#000000" font-family="Verdana" font-size="14" lengthAdjust="spacing" textLength="241.3359" x="2277.5" y="395.1191">sistema_ia_usado : VARCHAR(50)</text><g data-visibility-modifier="IE_MANDATORY"><ellipse cx="2270.5" cy="408.0659" fill="#FFFFFF" rx="3" ry="3" style="stroke:#000000;stroke-width:1;"/></g><text fill="#000000" font-family="Verdana" font-size="14" lengthAdjust="spacing" textLength="265.7197" x="2277.5" y="412.1338">estado_cumplimiento : VARCHAR(20)</text><text fill="#000000" font-family="Verdana" font-size="14" lengthAdjust="spacing" textLength="270.5322" x="2277.5" y="429.1484">detalle_infracciones : TEXT &#171;Nullable&#187;</text><text fill="#000000" font-family="Verdana" font-size="14" lengthAdjust="spacing" textLength="198.0029" x="2277.5" y="446.1631">fecha_auditoria : DATETIME</text></g><!--class archivos--><g class="entity" data-qualified-name="Auditor.a Legal y Archivo.archivos" data-source-line="81" id="ent0010"><rect fill="#FFFFFF" height="146.0879" rx="2.5" ry="2.5" style="stroke:#000000;stroke-width:1;" width="576.3916" x="1623" y="298.5"/><ellipse cx="1832.4932" cy="312.5" fill="#FFFFFF" rx="9" ry="9" style="stroke:#000000;stroke-width:1;"/><path d="M1828.2275,318.5 L1828.2275,306.3281 L1837.2588,306.3281 L1837.2588,308.3906 L1830.6807,308.3906 L1830.6807,311.0938 L1836.79,311.0938 L1836.79,313.1406 L1830.6807,313.1406 L1830.6807,316.4531 L1837.4932,316.4531 L1837.4932,318.5 L1828.2275,318.5 Z " fill="#000000"/><text fill="#000000" font-family="Verdana" font-size="14" lengthAdjust="spacing" textLength="149.9053" x="1849.9932" y="318.0679">Archivos_Gerenciales</text><line style="stroke:#000000;stroke-width:1;" x1="1624" x2="2198.3916" y1="326.5" y2="326.5"/><g data-visibility-modifier="IE_MANDATORY"><ellipse cx="1634" cy="340.5073" fill="#FFFFFF" rx="3" ry="3" style="stroke:#000000;stroke-width:1;"/></g><text fill="#000000" font-family="Verdana" font-size="14" lengthAdjust="spacing" textLength="94.8691" x="1641" y="344.5752">id : INT &#171;PK&#187;</text><line style="stroke:#000000;stroke-width:1;" x1="1624" x2="2198.3916" y1="351.5146" y2="351.5146"/><g data-visibility-modifier="IE_MANDATORY"><ellipse cx="1634" cy="365.522" fill="#FFFFFF" rx="3" ry="3" style="stroke:#000000;stroke-width:1;"/></g><text fill="#000000" font-family="Verdana" font-size="14" lengthAdjust="spacing" textLength="294.6973" x="1641" y="369.5898">reporte_mensual_id : INT &#171;FK&#187; &#171;Unique&#187;</text><text fill="#000000" font-family="Verdana" font-size="14" lengthAdjust="spacing" textLength="4.9219" x="1641" y="386.6045">&#160;</text><g data-visibility-modifier="IE_MANDATORY"><ellipse cx="1634" cy="399.5513" fill="#FFFFFF" rx="3" ry="3" style="stroke:#000000;stroke-width:1;"/></g><text fill="#000000" font-family="Verdana" font-size="14" lengthAdjust="spacing" textLength="268.6455" x="1641" y="403.6191">url_documento_final : VARCHAR(255)</text><g data-visibility-modifier="IE_MANDATORY"><ellipse cx="1634" cy="416.5659" fill="#FFFFFF" rx="3" ry="3" style="stroke:#000000;stroke-width:1;"/></g><text fill="#000000" font-family="Verdana" font-size="14" lengthAdjust="spacing" textLength="552.3916" x="1641" y="420.6338">hash_firma_digital : VARCHAR(255) ' Garantiza que el reporte no fue alterado</text><g data-visibility-modifier="IE_MANDATORY"><ellipse cx="1634" cy="433.5806" fill="#FFFFFF" rx="3" ry="3" style="stroke:#000000;stroke-width:1;"/></g><text fill="#000000" font-family="Verdana" font-size="14" lengthAdjust="spacing" textLength="204.2236" x="1641" y="437.6484">fecha_archivado : DATETIME</text></g><!--link reportes to resumenes--><g class="link" data-entity-1="ent0003" data-entity-2="ent0004" data-link-type="association" data-source-line="97" id="lnk11"><path codeLine="97" d="M285,218.09 C285,243.74 285,249.05 285,274.71" fill="none" id="reportes-resumenes" style="stroke:#000000;stroke-width:1;"/><line style="stroke:#000000;stroke-width:1;" x1="281" x2="289" y1="214.09" y2="214.09"/><line style="stroke:#000000;stroke-width:1;" x1="281" x2="289" y1="217.09" y2="217.09"/><line style="stroke:#000000;stroke-width:1;" x1="285" x2="285" y1="218.09" y2="210.09"/><line style="stroke:#000000;stroke-width:1;" x1="285" x2="285" y1="278.71" y2="289.71"/><ellipse cx="285" cy="278.71" fill="none" rx="4" ry="4" style="stroke:#000000;stroke-width:1;"/><line style="stroke:#000000;stroke-width:1;" x1="289" x2="281" y1="285.71" y2="285.71"/><text fill="#000000" font-family="Verdana" font-size="13" lengthAdjust="spacing" textLength="55.2944" x="229" y="246.9698">contiene</text></g><!--link reportes to kpis--><g class="link" data-entity-1="ent0003" data-entity-2="ent0006" data-link-type="association" data-source-line="98" id="lnk12"><path codeLine="98" d="M550.76,170 C856.43,170 1317,170 1317,170 C1317,170 1317,218.98 1317,274.83" fill="none" id="reportes-kpis" style="stroke:#000000;stroke-width:1;"/><line style="stroke:#000000;stroke-width:1;" x1="546.76" x2="546.76" y1="174" y2="166"/><line style="stroke:#000000;stroke-width:1;" x1="549.76" x2="549.76" y1="174" y2="166"/><line style="stroke:#000000;stroke-width:1;" x1="550.76" x2="542.76" y1="170" y2="170"/><line style="stroke:#000000;stroke-width:1;" x1="1317" x2="1317" y1="278.83" y2="289.83"/><ellipse cx="1317" cy="278.83" fill="none" rx="4" ry="4" style="stroke:#000000;stroke-width:1;"/><line style="stroke:#000000;stroke-width:1;" x1="1321" x2="1313" y1="285.83" y2="285.83"/><text fill="#000000" font-family="Verdana" font-size="13" lengthAdjust="spacing" textLength="101.2769" x="887.79" y="167.0698">mide_mediante</text></g><!--link reportes to archivos--><g class="link" data-entity-1="ent0003" data-entity-2="ent0010" data-link-type="association" data-source-line="99" id="lnk13"><path codeLine="99" d="M550.64,129 C1009.13,129 1911,129 1911,129 C1911,129 1911,212.01 1911,283.41" fill="none" id="reportes-archivos" style="stroke:#000000;stroke-width:1;"/><line style="stroke:#000000;stroke-width:1;" x1="546.64" x2="546.64" y1="133" y2="125"/><line style="stroke:#000000;stroke-width:1;" x1="549.64" x2="549.64" y1="133" y2="125"/><line style="stroke:#000000;stroke-width:1;" x1="550.64" x2="542.64" y1="129" y2="129"/><line style="stroke:#000000;stroke-width:1;" x1="1911" x2="1911" y1="287.41" y2="298.41"/><ellipse cx="1911" cy="287.41" fill="none" rx="4" ry="4" style="stroke:#000000;stroke-width:1;"/><line style="stroke:#000000;stroke-width:1;" x1="1915" x2="1907" y1="294.41" y2="294.41"/><text fill="#000000" font-family="Verdana" font-size="13" lengthAdjust="spacing" textLength="107.6118" x="1203.53" y="126.0698">se_consolida_en</text></g><!--link reportes to graficas--><g class="link" data-entity-1="ent0003" data-entity-2="ent0007" data-link-type="crowfoot" data-source-line="102" id="lnk14"><path codeLine="102" d="M537.25,218.26 C537.25,289 537.25,372 537.25,372 C537.25,372 545.4,372 581.35,372" fill="none" id="reportes-graficas" style="stroke:#000000;stroke-width:1;"/><line style="stroke:#000000;stroke-width:1;" x1="533.25" x2="541.25" y1="214.26" y2="214.26"/><line style="stroke:#000000;stroke-width:1;" x1="533.25" x2="541.25" y1="217.26" y2="217.26"/><line style="stroke:#000000;stroke-width:1;" x1="537.25" x2="537.25" y1="218.26" y2="210.26"/><line style="stroke:#000000;stroke-width:1;" x1="591.35" x2="599.35" y1="372" y2="366"/><line style="stroke:#000000;stroke-width:1;" x1="591.35" x2="599.35" y1="372" y2="378"/><line style="stroke:#000000;stroke-width:1;" x1="591.35" x2="599.35" y1="372" y2="372"/><ellipse cx="585.35" cy="372" fill="none" rx="4" ry="4" style="stroke:#000000;stroke-width:1;"/><text fill="#000000" font-family="Verdana" font-size="13" lengthAdjust="spacing" textLength="86.9946" x="516.25" y="336.2498">visualiza_con</text></g><!--link reportes to auditorias--><g class="link" data-entity-1="ent0003" data-entity-2="ent0009" data-link-type="crowfoot" data-source-line="103" id="lnk15"><path codeLine="103" d="M550.55,88 C1115.78,88 2407,88 2407,88 C2407,88 2407,188.13 2407,271.88" fill="none" id="reportes-auditorias" style="stroke:#000000;stroke-width:1;"/><line style="stroke:#000000;stroke-width:1;" x1="546.55" x2="546.55" y1="92" y2="84"/><line style="stroke:#000000;stroke-width:1;" x1="549.55" x2="549.55" y1="92" y2="84"/><line style="stroke:#000000;stroke-width:1;" x1="550.55" x2="542.55" y1="88" y2="88"/><line style="stroke:#000000;stroke-width:1;" x1="2407" x2="2413" y1="281.88" y2="289.88"/><line style="stroke:#000000;stroke-width:1;" x1="2407" x2="2401" y1="281.88" y2="289.88"/><line style="stroke:#000000;stroke-width:1;" x1="2407" x2="2407" y1="281.88" y2="289.88"/><ellipse cx="2407" cy="275.88" fill="none" rx="4" ry="4" style="stroke:#000000;stroke-width:1;"/><text fill="#000000" font-family="Verdana" font-size="13" lengthAdjust="spacing" textLength="86.7725" x="1488.71" y="85.0698">se_somete_a</text></g><?plantuml-src lLRDRkCs4BxxAQQw95d4RRQBB8fW6q1rbDI8_-euGNiY66bYCv58bQICEZ-Fq5EV8CSUUkgjLxzOX_gpR6U116ZN9qCSpWo_RxwP-ShEC458Oovaozm9cNBD4uY5HBj84PIsCzKua2f2WobyF6Xyr5pUkO_V7RHQE_3zgtzat5_-SNBP6nx1E1WDnvFW0dw1pcL_rElsky5WCeHTdBS_VlWwbTEzj_bkfJoyurC4xmoD5Sk_9KG8OqpfIMYWZz9aF4RZmKEh1VJR0GhOFV5FOEIVZ8CZwA2qciVYdeDL4OUO0m-jc8k8Hp15ZJ8KF7PUCmafQg4YbNkYUy8kmAk2iJeOky1fffq33xW1NMNpaDzpltSW8ZY2xc02dpwDpe-FwvDsks6Ka2-SypZZaIhC6uTS2lMvKuCHCgwHiqQSu3UBMlAOZV7c-9W-3B8uvjSnKlY6NyAH7B8fIYHSwFQLF-xyw8ztFnpiEVXkZo2GCD8gHAFs2UkvC7HX7tmTpiISb_2utms6Cyv2oYCKIfAh4tyIJBhz8BTugXZf2ws829Lm6IdZg7IXzJU5Qqq0cYn12NYBOKRKA6-3WFoOi0eg0rC2Nnwy7VcICvOKd3PXF3tFmRkKujTi0xfGIOjIrEZbl4o2drV4w18jHkvVoyqMDRcJ0j2AcszpRixAgCH5gjLr_c_iEBZVPgNXf69bE-nJwwaXiSxoEGwpM3anz9T_MYr2Gda14vHHBfEcp3P9xN1tbzWy7tN122deCKvtkKeMZNFKMX5pmAE4h9nHmUWQvrqPKV386J9ocDDzbuelnhHmyP6jlyD16NIwVR_Nh0bEATCXAz_5DjwrfUiqLrPT8vmCVXWEUu4_85IlyaYQ00IC8Qm8kSaGU6PLidos8jmI82-iNgK_yFpGPdb3r33Lo-SR0jenRYkM7LqXl-KaLAMcCK9dnhNT8EXCStVHiCdg6d4qBJ__vporrX6S8r9nC8DwBgZtD9HoM7UnjUmRrpCTio9F9pNANelxGigrsWuFz-eBjqP95d6h39iHhOfKaREwflk225uX-t8xR6hDpo91lfP_SUZXbFhmekolwdCQ0--ACdNeQWYp98r58eWDHTDS9tcjEGOeG-fFG5X2rmSisiuQSsLaKZFhDDpazF7wx7ybq6M92GqlpZAp3ZtHLnlkK7CpgIA6WEOsWOvpbwbP8H5HsifDYB87UjlDT0sgjOPQsqPeUHmZ4_96yz1nXnN1BtVgakqAh5SBhnYWke9gjNwi9DTVNFpKMvTQMHU6dLNcMCm_NXvygQReX1EfqCrSgzYDa6lhmvfeti6CcndPK6coI4o5tR9ryumMJteahMOKopMy2XXPjhpOvlEkuRQ4lbf5NXJP6xVNST3pEztXWDRMq-Nl5zsEVm6xfzJBnLJ2EIxCMtTMLxSnB-leFTNkUzYzbFNZIj31KatcMwTHrBpBPMO__u3MTMGQV6xyqeUIQSWntslL6-VZOxkj7XkBq15uRabndhqjito0aaKY8aTz90Zy5ypgiY9JWupyKO8qbHXAxuN73M1tbD4-IenVeuPa-KziHKerMayN0-vvRLwtFEDUrnJcvfCULeE4ag15fcYhBXTloxJHj8gCZKgGYfjxhNy1?></g></svg>