<?plantuml 1.2026.2?><svg xmlns="http://www.w3.org/2000/svg" xmlns:xlink="http://www.w3.org/1999/xlink" contentStyleType="text/css" data-diagram-type="CLASS" height="719px" preserveAspectRatio="none" style="width:1482px;height:719px;background:#FFFFFF;" version="1.1" viewBox="0 0 1482 719" width="1482px" zoomAndPan="magnify"><defs/><g><!--cluster Gesti?n de Asignaciones (Workflow)--><g class="cluster" data-qualified-name="Gesti.n de Asignaciones .Workflow." data-source-line="11" id="ent0002"><path d="M13.5,11 L301.9307,11 A3.75,3.75 0 0 1 304.4307,13.5 L311.4307,34.0146 L452.5,34.0146 A2.5,2.5 0 0 1 455,36.5146 L455,466.5 A2.5,2.5 0 0 1 452.5,469 L13.5,469 A2.5,2.5 0 0 1 11,466.5 L11,13.5 A2.5,2.5 0 0 1 13.5,11" fill="#FFFFFF" style="stroke:#000000;stroke-width:1;"/><line style="stroke:#000000;stroke-width:1;" x1="11" x2="311.4307" y1="34.0146" y2="34.0146"/><text fill="#000000" font-family="Verdana" font-size="14" font-weight="bold" lengthAdjust="spacing" textLength="287.4307" x="15" y="27.0752">Gesti&#243;n de Asignaciones (Workflow)</text></g><!--cluster Ejecuci?n y Aseguramiento de Calidad--><g class="cluster" data-qualified-name="Ejecuci.n y Aseguramiento de Calidad" data-source-line="42" id="ent0005"><path d="M481.5,271 L782.543,271 A3.75,3.75 0 0 1 785.043,273.5 L792.043,294.0146 L876.5,294.0146 A2.5,2.5 0 0 1 879,296.5146 L879,709.5 A2.5,2.5 0 0 1 876.5,712 L481.5,712 A2.5,2.5 0 0 1 479,709.5 L479,273.5 A2.5,2.5 0 0 1 481.5,271" fill="#FFFFFF" style="stroke:#000000;stroke-width:1;"/><line style="stroke:#000000;stroke-width:1;" x1="479" x2="792.043" y1="294.0146" y2="294.0146"/><text fill="#000000" font-family="Verdana" font-size="14" font-weight="bold" lengthAdjust="spacing" textLength="300.043" x="483" y="287.0752">Ejecuci&#243;n y Aseguramiento de Calidad</text></g><!--cluster SLA y Escalamientos Autom?ticos--><g class="cluster" data-qualified-name="SLA y Escalamientos Autom.ticos" data-source-line="69" id="ent0008"><path d="M905.5,271 L1170.7773,271 A3.75,3.75 0 0 1 1173.2773,273.5 L1180.2773,294.0146 L1472.5,294.0146 A2.5,2.5 0 0 1 1475,296.5146 L1475,466.5 A2.5,2.5 0 0 1 1472.5,469 L905.5,469 A2.5,2.5 0 0 1 903,466.5 L903,273.5 A2.5,2.5 0 0 1 905.5,271" fill="#FFFFFF" style="stroke:#000000;stroke-width:1;"/><line style="stroke:#000000;stroke-width:1;" x1="903" x2="1180.2773" y1="294.0146" y2="294.0146"/><text fill="#000000" font-family="Verdana" font-size="14" font-weight="bold" lengthAdjust="spacing" textLength="264.2773" x="907" y="287.0752">SLA y Escalamientos Autom&#225;ticos</text></g><!--class tareas--><g class="entity" data-qualified-name="Gesti.n de Asignaciones .Workflow..tareas" data-source-line="14" id="ent0003"><rect fill="#FFFFFF" height="180.1172" rx="2.5" ry="2.5" style="stroke:#000000;stroke-width:1;" width="363.3291" x="75.5" y="47"/><ellipse cx="190.1274" cy="61" fill="#FFFFFF" rx="9" ry="9" style="stroke:#000000;stroke-width:1;"/><path d="M185.8618,67 L185.8618,54.8281 L194.8931,54.8281 L194.8931,56.8906 L188.3149,56.8906 L188.3149,59.5938 L194.4243,59.5938 L194.4243,61.6406 L188.3149,61.6406 L188.3149,64.9531 L195.1274,64.9531 L195.1274,67 L185.8618,67 Z " fill="#000000"/><text fill="#000000" font-family="Verdana" font-size="14" lengthAdjust="spacing" textLength="126.5742" x="207.6274" y="66.5679">Tareas_Mitigacion</text><line style="stroke:#000000;stroke-width:1;" x1="76.5" x2="437.8291" y1="75" y2="75"/><g data-visibility-modifier="IE_MANDATORY"><ellipse cx="86.5" cy="89.0073" fill="#FFFFFF" rx="3" ry="3" style="stroke:#000000;stroke-width:1;"/></g><text fill="#000000" font-family="Verdana" font-size="14" lengthAdjust="spacing" textLength="94.8691" x="93.5" y="93.0752">id : INT &#171;PK&#187;</text><line style="stroke:#000000;stroke-width:1;" x1="76.5" x2="437.8291" y1="100.0146" y2="100.0146"/><g data-visibility-modifier="IE_MANDATORY"><ellipse cx="86.5" cy="114.022" fill="#FFFFFF" rx="3" ry="3" style="stroke:#000000;stroke-width:1;"/></g><text fill="#000000" font-family="Verdana" font-size="14" lengthAdjust="spacing" textLength="339.3291" x="93.5" y="118.0898">ticket_accion_id : INT &#171;External_Ref&#187; &#171;Unique&#187;</text><g data-visibility-modifier="IE_MANDATORY"><ellipse cx="86.5" cy="131.0366" fill="#FFFFFF" rx="3" ry="3" style="stroke:#000000;stroke-width:1;"/></g><text fill="#000000" font-family="Verdana" font-size="14" lengthAdjust="spacing" textLength="306.3047" x="93.5" y="135.1045">zona_monitoreada_id : INT &#171;External_Ref&#187;</text><g data-visibility-modifier="IE_MANDATORY"><ellipse cx="86.5" cy="148.0513" fill="#FFFFFF" rx="3" ry="3" style="stroke:#000000;stroke-width:1;"/></g><text fill="#000000" font-family="Verdana" font-size="14" lengthAdjust="spacing" textLength="307.1934" x="93.5" y="152.1191">personal_asignado_id : INT &#171;External_Ref&#187;</text><text fill="#000000" font-family="Verdana" font-size="14" lengthAdjust="spacing" textLength="4.9219" x="93.5" y="169.1338">&#160;</text><g data-visibility-modifier="IE_MANDATORY"><ellipse cx="86.5" cy="182.0806" fill="#FFFFFF" rx="3" ry="3" style="stroke:#000000;stroke-width:1;"/></g><text fill="#000000" font-family="Verdana" font-size="14" lengthAdjust="spacing" textLength="207.5186" x="93.5" y="186.1484">estado_tarea : VARCHAR(30)</text><g data-visibility-modifier="IE_MANDATORY"><ellipse cx="86.5" cy="199.0952" fill="#FFFFFF" rx="3" ry="3" style="stroke:#000000;stroke-width:1;"/></g><text fill="#000000" font-family="Verdana" font-size="14" lengthAdjust="spacing" textLength="209.959" x="93.5" y="203.1631">fecha_asignacion : DATETIME</text><g data-visibility-modifier="IE_MANDATORY"><ellipse cx="86.5" cy="216.1099" fill="#FFFFFF" rx="3" ry="3" style="stroke:#000000;stroke-width:1;"/></g><text fill="#000000" font-family="Verdana" font-size="14" lengthAdjust="spacing" textLength="255.1309" x="93.5" y="220.1777">fecha_limite_resolucion : DATETIME</text></g><!--class instrucciones--><g class="entity" data-qualified-name="Gesti.n de Asignaciones .Workflow..instrucciones" data-source-line="31" id="ent0004"><rect fill="#FFFFFF" height="146.0879" rx="2.5" ry="2.5" style="stroke:#000000;stroke-width:1;" width="411.1738" x="27.5" y="307"/><ellipse cx="170.2471" cy="321" fill="#FFFFFF" rx="9" ry="9" style="stroke:#000000;stroke-width:1;"/><path d="M165.9814,327 L165.9814,314.8281 L175.0127,314.8281 L175.0127,316.8906 L168.4346,316.8906 L168.4346,319.5938 L174.5439,319.5938 L174.5439,321.6406 L168.4346,321.6406 L168.4346,324.9531 L175.2471,324.9531 L175.2471,327 L165.9814,327 Z " fill="#000000"/><text fill="#000000" font-family="Verdana" font-size="14" lengthAdjust="spacing" textLength="118.1797" x="187.7471" y="326.5679">Instrucciones_IA</text><line style="stroke:#000000;stroke-width:1;" x1="28.5" x2="437.6738" y1="335" y2="335"/><g data-visibility-modifier="IE_MANDATORY"><ellipse cx="38.5" cy="349.0073" fill="#FFFFFF" rx="3" ry="3" style="stroke:#000000;stroke-width:1;"/></g><text fill="#000000" font-family="Verdana" font-size="14" lengthAdjust="spacing" textLength="94.8691" x="45.5" y="353.0752">id : INT &#171;PK&#187;</text><line style="stroke:#000000;stroke-width:1;" x1="28.5" x2="437.6738" y1="360.0146" y2="360.0146"/><g data-visibility-modifier="IE_MANDATORY"><ellipse cx="38.5" cy="374.022" fill="#FFFFFF" rx="3" ry="3" style="stroke:#000000;stroke-width:1;"/></g><text fill="#000000" font-family="Verdana" font-size="14" lengthAdjust="spacing" textLength="221.3613" x="45.5" y="378.0898">tarea_mitigacion_id : INT &#171;FK&#187;</text><text fill="#000000" font-family="Verdana" font-size="14" lengthAdjust="spacing" textLength="4.9219" x="45.5" y="395.1045">&#160;</text><g data-visibility-modifier="IE_MANDATORY"><ellipse cx="38.5" cy="408.0513" fill="#FFFFFF" rx="3" ry="3" style="stroke:#000000;stroke-width:1;"/></g><text fill="#000000" font-family="Verdana" font-size="14" lengthAdjust="spacing" textLength="387.1738" x="45.5" y="412.1191">tipo_complejidad : VARCHAR(20) ' Est&#225;ndar, Compleja</text><g data-visibility-modifier="IE_MANDATORY"><ellipse cx="38.5" cy="425.0659" fill="#FFFFFF" rx="3" ry="3" style="stroke:#000000;stroke-width:1;"/></g><text fill="#000000" font-family="Verdana" font-size="14" lengthAdjust="spacing" textLength="195.0908" x="45.5" y="429.1338">contenido_generado : TEXT</text><text fill="#000000" font-family="Verdana" font-size="14" lengthAdjust="spacing" textLength="213.0693" x="45.5" y="446.1484">fecha_generacion : DATETIME</text></g><!--class implementaciones--><g class="entity" data-qualified-name="Ejecuci.n y Aseguramiento de Calidad.implementaciones" data-source-line="45" id="ent0006"><rect fill="#FFFFFF" height="146.0879" rx="2.5" ry="2.5" style="stroke:#000000;stroke-width:1;" width="325.5059" x="507" y="307"/><ellipse cx="571.4312" cy="321" fill="#FFFFFF" rx="9" ry="9" style="stroke:#000000;stroke-width:1;"/><path d="M567.1655,327 L567.1655,314.8281 L576.1968,314.8281 L576.1968,316.8906 L569.6187,316.8906 L569.6187,319.5938 L575.728,319.5938 L575.728,321.6406 L569.6187,321.6406 L569.6187,324.9531 L576.4312,324.9531 L576.4312,327 L567.1655,327 Z " fill="#000000"/><text fill="#000000" font-family="Verdana" font-size="14" lengthAdjust="spacing" textLength="189.1436" x="588.9312" y="326.5679">Implementaciones_Control</text><line style="stroke:#000000;stroke-width:1;" x1="508" x2="831.5059" y1="335" y2="335"/><g data-visibility-modifier="IE_MANDATORY"><ellipse cx="518" cy="349.0073" fill="#FFFFFF" rx="3" ry="3" style="stroke:#000000;stroke-width:1;"/></g><text fill="#000000" font-family="Verdana" font-size="14" lengthAdjust="spacing" textLength="94.8691" x="525" y="353.0752">id : INT &#171;PK&#187;</text><line style="stroke:#000000;stroke-width:1;" x1="508" x2="831.5059" y1="360.0146" y2="360.0146"/><g data-visibility-modifier="IE_MANDATORY"><ellipse cx="518" cy="374.022" fill="#FFFFFF" rx="3" ry="3" style="stroke:#000000;stroke-width:1;"/></g><text fill="#000000" font-family="Verdana" font-size="14" lengthAdjust="spacing" textLength="221.3613" x="525" y="378.0898">tarea_mitigacion_id : INT &#171;FK&#187;</text><text fill="#000000" font-family="Verdana" font-size="14" lengthAdjust="spacing" textLength="4.9219" x="525" y="395.1045">&#160;</text><g data-visibility-modifier="IE_MANDATORY"><ellipse cx="518" cy="408.0513" fill="#FFFFFF" rx="3" ry="3" style="stroke:#000000;stroke-width:1;"/></g><text fill="#000000" font-family="Verdana" font-size="14" lengthAdjust="spacing" textLength="205.625" x="525" y="412.1191">descripcion_ejecucion : TEXT</text><text fill="#000000" font-family="Verdana" font-size="14" lengthAdjust="spacing" textLength="301.5059" x="525" y="429.1338">evidencia_fotografica_url : VARCHAR(255)</text><g data-visibility-modifier="IE_MANDATORY"><ellipse cx="518" cy="442.0806" fill="#FFFFFF" rx="3" ry="3" style="stroke:#000000;stroke-width:1;"/></g><text fill="#000000" font-family="Verdana" font-size="14" lengthAdjust="spacing" textLength="247.5293" x="525" y="446.1484">fecha_implementacion : DATETIME</text></g><!--class verificaciones--><g class="entity" data-qualified-name="Ejecuci.n y Aseguramiento de Calidad.verificaciones" data-source-line="56" id="ent0007"><rect fill="#FFFFFF" height="163.1025" rx="2.5" ry="2.5" style="stroke:#000000;stroke-width:1;" width="368.1895" x="495" y="533"/><ellipse cx="596.3042" cy="547" fill="#FFFFFF" rx="9" ry="9" style="stroke:#000000;stroke-width:1;"/><path d="M592.0386,553 L592.0386,540.8281 L601.0698,540.8281 L601.0698,542.8906 L594.4917,542.8906 L594.4917,545.5938 L600.6011,545.5938 L600.6011,547.6406 L594.4917,547.6406 L594.4917,550.9531 L601.3042,550.9531 L601.3042,553 L592.0386,553 Z " fill="#000000"/><text fill="#000000" font-family="Verdana" font-size="14" lengthAdjust="spacing" textLength="158.0811" x="613.8042" y="552.5679">Verificaciones_Eficacia</text><line style="stroke:#000000;stroke-width:1;" x1="496" x2="862.1895" y1="561" y2="561"/><g data-visibility-modifier="IE_MANDATORY"><ellipse cx="506" cy="575.0073" fill="#FFFFFF" rx="3" ry="3" style="stroke:#000000;stroke-width:1;"/></g><text fill="#000000" font-family="Verdana" font-size="14" lengthAdjust="spacing" textLength="94.8691" x="513" y="579.0752">id : INT &#171;PK&#187;</text><line style="stroke:#000000;stroke-width:1;" x1="496" x2="862.1895" y1="586.0146" y2="586.0146"/><g data-visibility-modifier="IE_MANDATORY"><ellipse cx="506" cy="600.022" fill="#FFFFFF" rx="3" ry="3" style="stroke:#000000;stroke-width:1;"/></g><text fill="#000000" font-family="Verdana" font-size="14" lengthAdjust="spacing" textLength="344.1895" x="513" y="604.0898">implementacion_control_id : INT &#171;FK&#187; &#171;Unique&#187;</text><g data-visibility-modifier="IE_MANDATORY"><ellipse cx="506" cy="617.0366" fill="#FFFFFF" rx="3" ry="3" style="stroke:#000000;stroke-width:1;"/></g><text fill="#000000" font-family="Verdana" font-size="14" lengthAdjust="spacing" textLength="326.9219" x="513" y="621.1045">supervisor_evaluador_id : INT &#171;External_Ref&#187;</text><text fill="#000000" font-family="Verdana" font-size="14" lengthAdjust="spacing" textLength="4.9219" x="513" y="638.1191">&#160;</text><g data-visibility-modifier="IE_MANDATORY"><ellipse cx="506" cy="651.0659" fill="#FFFFFF" rx="3" ry="3" style="stroke:#000000;stroke-width:1;"/></g><text fill="#000000" font-family="Verdana" font-size="14" lengthAdjust="spacing" textLength="149.2217" x="513" y="655.1338">es_eficaz : BOOLEAN</text><text fill="#000000" font-family="Verdana" font-size="14" lengthAdjust="spacing" textLength="243.0791" x="513" y="672.1484">motivo_rechazo : TEXT &#171;Nullable&#187;</text><g data-visibility-modifier="IE_MANDATORY"><ellipse cx="506" cy="685.0952" fill="#FFFFFF" rx="3" ry="3" style="stroke:#000000;stroke-width:1;"/></g><text fill="#000000" font-family="Verdana" font-size="14" lengthAdjust="spacing" textLength="215.332" x="513" y="689.1631">fecha_verificacion : DATETIME</text></g><!--class escalamientos--><g class="entity" data-qualified-name="SLA y Escalamientos Autom.ticos.escalamientos" data-source-line="72" id="ent0009"><rect fill="#FFFFFF" height="146.0879" rx="2.5" ry="2.5" style="stroke:#000000;stroke-width:1;" width="538.958" x="919.5" y="307"/><ellipse cx="1109.9209" cy="321" fill="#FFFFFF" rx="9" ry="9" style="stroke:#000000;stroke-width:1;"/><path d="M1105.6553,327 L1105.6553,314.8281 L1114.6865,314.8281 L1114.6865,316.8906 L1108.1084,316.8906 L1108.1084,319.5938 L1114.2178,319.5938 L1114.2178,321.6406 L1108.1084,321.6406 L1108.1084,324.9531 L1114.9209,324.9531 L1114.9209,327 L1105.6553,327 Z " fill="#000000"/><text fill="#000000" font-family="Verdana" font-size="14" lengthAdjust="spacing" textLength="150.6162" x="1127.4209" y="326.5679">Alertas_Escalamiento</text><line style="stroke:#000000;stroke-width:1;" x1="920.5" x2="1457.458" y1="335" y2="335"/><g data-visibility-modifier="IE_MANDATORY"><ellipse cx="930.5" cy="349.0073" fill="#FFFFFF" rx="3" ry="3" style="stroke:#000000;stroke-width:1;"/></g><text fill="#000000" font-family="Verdana" font-size="14" lengthAdjust="spacing" textLength="94.8691" x="937.5" y="353.0752">id : INT &#171;PK&#187;</text><line style="stroke:#000000;stroke-width:1;" x1="920.5" x2="1457.458" y1="360.0146" y2="360.0146"/><g data-visibility-modifier="IE_MANDATORY"><ellipse cx="930.5" cy="374.022" fill="#FFFFFF" rx="3" ry="3" style="stroke:#000000;stroke-width:1;"/></g><text fill="#000000" font-family="Verdana" font-size="14" lengthAdjust="spacing" textLength="221.3613" x="937.5" y="378.0898">tarea_mitigacion_id : INT &#171;FK&#187;</text><text fill="#000000" font-family="Verdana" font-size="14" lengthAdjust="spacing" textLength="4.9219" x="937.5" y="395.1045">&#160;</text><g data-visibility-modifier="IE_MANDATORY"><ellipse cx="930.5" cy="408.0513" fill="#FFFFFF" rx="3" ry="3" style="stroke:#000000;stroke-width:1;"/></g><text fill="#000000" font-family="Verdana" font-size="14" lengthAdjust="spacing" textLength="273.5059" x="937.5" y="412.1191">motivo_escalamiento : VARCHAR(100)</text><g data-visibility-modifier="IE_MANDATORY"><ellipse cx="930.5" cy="425.0659" fill="#FFFFFF" rx="3" ry="3" style="stroke:#000000;stroke-width:1;"/></g><text fill="#000000" font-family="Verdana" font-size="14" lengthAdjust="spacing" textLength="514.958" x="937.5" y="429.1338">nivel_escalamiento : INT ' Sube en jerarqu&#237;a (1=Supervisor, 2=Gerente)</text><g data-visibility-modifier="IE_MANDATORY"><ellipse cx="930.5" cy="442.0806" fill="#FFFFFF" rx="3" ry="3" style="stroke:#000000;stroke-width:1;"/></g><text fill="#000000" font-family="Verdana" font-size="14" lengthAdjust="spacing" textLength="228.1904" x="937.5" y="446.1484">fecha_escalamiento : DATETIME</text></g><!--link tareas to instrucciones--><g class="link" data-entity-1="ent0003" data-entity-2="ent0004" data-link-type="crowfoot" data-source-line="89" id="lnk10"><path codeLine="89" d="M257,235.14 C257,261.34 257,263.63 257,288.67" fill="none" id="tareas-instrucciones" style="stroke:#000000;stroke-width:1;"/><line style="stroke:#000000;stroke-width:1;" x1="253" x2="261" y1="231.14" y2="231.14"/><line style="stroke:#000000;stroke-width:1;" x1="253" x2="261" y1="234.14" y2="234.14"/><line style="stroke:#000000;stroke-width:1;" x1="257" x2="257" y1="235.14" y2="227.14"/><line style="stroke:#000000;stroke-width:1;" x1="257" x2="263" y1="298.67" y2="306.67"/><line style="stroke:#000000;stroke-width:1;" x1="257" x2="251" y1="298.67" y2="306.67"/><line style="stroke:#000000;stroke-width:1;" x1="257" x2="257" y1="298.67" y2="306.67"/><ellipse cx="257" cy="292.67" fill="none" rx="4" ry="4" style="stroke:#000000;stroke-width:1;"/><text fill="#000000" font-family="Verdana" font-size="13" lengthAdjust="spacing" textLength="102.1021" x="154" y="263.9698">es_asistida_por</text></g><!--link tareas to implementaciones--><g class="link" data-entity-1="ent0003" data-entity-2="ent0006" data-link-type="crowfoot" data-source-line="90" id="lnk11"><path codeLine="90" d="M446.75,167 C557.55,167 670,167 670,167 C670,167 670,227.34 670,289" fill="none" id="tareas-implementaciones" style="stroke:#000000;stroke-width:1;"/><line style="stroke:#000000;stroke-width:1;" x1="442.75" x2="442.75" y1="171" y2="163"/><line style="stroke:#000000;stroke-width:1;" x1="445.75" x2="445.75" y1="171" y2="163"/><line style="stroke:#000000;stroke-width:1;" x1="446.75" x2="438.75" y1="167" y2="167"/><line style="stroke:#000000;stroke-width:1;" x1="670" x2="676" y1="299" y2="307"/><line style="stroke:#000000;stroke-width:1;" x1="670" x2="664" y1="299" y2="307"/><line style="stroke:#000000;stroke-width:1;" x1="670" x2="670" y1="299" y2="307"/><ellipse cx="670" cy="293" fill="none" rx="4" ry="4" style="stroke:#000000;stroke-width:1;"/><text fill="#000000" font-family="Verdana" font-size="13" lengthAdjust="spacing" textLength="147.0435" x="476.37" y="164.0698">se_resuelve_mediante</text></g><!--link tareas to escalamientos--><g class="link" data-entity-1="ent0003" data-entity-2="ent0009" data-link-type="crowfoot" data-source-line="91" id="lnk12"><path codeLine="91" d="M446.63,107 C717.81,107 1189,107 1189,107 C1189,107 1189,207.98 1189,288.84" fill="none" id="tareas-escalamientos" style="stroke:#000000;stroke-width:1;"/><line style="stroke:#000000;stroke-width:1;" x1="442.63" x2="442.63" y1="111" y2="103"/><line style="stroke:#000000;stroke-width:1;" x1="445.63" x2="445.63" y1="111" y2="103"/><line style="stroke:#000000;stroke-width:1;" x1="446.63" x2="438.63" y1="107" y2="107"/><line style="stroke:#000000;stroke-width:1;" x1="1189" x2="1195" y1="298.84" y2="306.84"/><line style="stroke:#000000;stroke-width:1;" x1="1189" x2="1183" y1="298.84" y2="306.84"/><line style="stroke:#000000;stroke-width:1;" x1="1189" x2="1189" y1="298.84" y2="306.84"/><ellipse cx="1189" cy="292.84" fill="none" rx="4" ry="4" style="stroke:#000000;stroke-width:1;"/><text fill="#000000" font-family="Verdana" font-size="13" lengthAdjust="spacing" textLength="125.4868" x="787.74" y="104.0698">sufre_retrasos_con</text></g><!--link implementaciones to verificaciones--><g class="link" data-entity-1="ent0006" data-entity-2="ent0007" data-link-type="association" data-source-line="94" id="lnk13"><path codeLine="94" d="M670,461.23 C670,486.5 670,491.95 670,517.85" fill="none" id="implementaciones-verificaciones" style="stroke:#000000;stroke-width:1;"/><line style="stroke:#000000;stroke-width:1;" x1="666" x2="674" y1="457.23" y2="457.23"/><line style="stroke:#000000;stroke-width:1;" x1="666" x2="674" y1="460.23" y2="460.23"/><line style="stroke:#000000;stroke-width:1;" x1="670" x2="670" y1="461.23" y2="453.23"/><line style="stroke:#000000;stroke-width:1;" x1="670" x2="670" y1="521.85" y2="532.85"/><ellipse cx="670" cy="521.85" fill="none" rx="4" ry="4" style="stroke:#000000;stroke-width:1;"/><line style="stroke:#000000;stroke-width:1;" x1="674" x2="666" y1="528.85" y2="528.85"/><text fill="#000000" font-family="Verdana" font-size="13" lengthAdjust="spacing" textLength="103.5557" x="566" y="490.1098">es_auditada_en</text></g><?plantuml-src jLR1Sjis4BthAxQyMFROhPDCCXrFx1b6ebsDRIaZCMvxui3aIePC0Wm0gh7ZV49F-O9yG4_z1FrO5o2bWfARneVeOXh0OXVlxRxT7ymD5WXbphZew5ikIgPO0JaNQEvA1AdCZVGsXCnGOmcl3hr5nSIjNVpviDFPWUDl_j7Xo-Nd_hkBqH5S3kB1MTWRB3yFuNVeZORnU7G1NLmSl7h-Oobckq-xkLEoz9RD488pr8Ol_nQG8OIQpmHBkHIeeVkhLBVJNFwn6y37JWVejmFHC1xqmpwy3VlZw0XwA8nYERzda3C28qDt3wrTixa4-tnGg6M-G0ML0CLHpwIxYoovkOCWPWgPJYwvuJFdEW2cmRXLyWlDRmzu1aSm6CRm-lNRyvEJzSx1mVfp1wuu2gGGSdZJ0oOCAYuLT6EUtgA16MqgbibTxrhZjXAMMj-9voJwGDQ2vSaOfoSdjF1EyFSLUfxtu5uAbXHIS2CftepzjxrdLABIqcum1tSclsBbFQqc9sFxC2ZAdB9I6FVV5RrnobFtFSRqXjtJf-UE-BK-7ABavYeSztu9nzqNXpuAKslO16I1e8FzC8xYmMNKGjUml6QL4CO5XI2FY4AEHIajyOxhAdNvX1zIp7WcWoqtEI-umMHrUDlRfrMwNN953dfiJcaaDRqBWWdN1WjclGr2ScBXQdpim5d5LEQ2avKfAsDF1JNh2hZGHbLfazwfj2ZEcVv9S_kbWrPQ3lp3oI1qMTc-uOd9kLSdTLAiCztd_VJSPzkcPIcJ9aQUiSnZxldXhgr4RPPVHCRKFlIQftZcgQJS5uH-iifvkY2EVelNPsegwjt7EVZagKGqnxJXzOuo4MSL2Hkt_5k8UoG15AEd4mrnic22N0V_PgoL0GQ5pGp7eGrKoNm3_FNn1lzUSygHiB7vVNaWEKyLBzqnh45mMBMmn0KdvKivIwRIo9bYjXwJIkK-QozVRXTS-ot_LmOrcXg2LSahGFk770T4Iz1KlxVQGdLbrM0QhKq9r4Lhx-cGjX-IDAnk0lkuYEgA5771jLG9BbXUKRAgRvF4M5K8noq5F6MvjckFAs7YaBcdgz-CHXTHE5pl5jBmXIHDicQhOY7dmohFsNNUZhWcpyViwzKpkGY9dqYdB6-gHaDO6Lailr3xaNghS28dhH24EIf3UkOiCwAgf6wMOI59WIKqmUeMoxK9qUjvSnHZo_rtB1hIfZbrXNuT9aq4zFnW7u9LYxSYGlEJOy9l3Wq5VfnU_JmxR3KimHUORvwrqUp0fBf6wtPkLVzzjVoBGVVPyMITPVlm_FWC5TdWTaLktBXDwXC7k75qGLFRQ1XDu7JvvsJG2oVGFQLfWJejdEETVkhWHbTYlgfJ4b2Qkzm8jPh5EitezF1mS20_RhGieeMAWDeypNmqhL0s1PldDzMLJBJhrHNI59TOvRPprQPTExkiKJLLrevYqb9RHGXiyATvDNSz8ooLlAwpeRFbr5twiAbAJVHLnktaao3T-0y0?></g></svg>