<?plantuml 1.2026.2?><svg xmlns="http://www.w3.org/2000/svg" xmlns:xlink="http://www.w3.org/1999/xlink" contentStyleType="text/css" data-diagram-type="CLASS" height="527px" preserveAspectRatio="none" style="width:1149px;height:527px;background:#FFFFFF;" version="1.1" viewBox="0 0 1149 527" width="1149px" zoomAndPan="magnify"><defs/><g><!--cluster Visualizaci?n Central (Dashboard)--><g class="cluster" data-qualified-name="Visualizaci.n Central .Dashboard." data-source-line="11" id="ent0002"><path d="M400.5,11 L670.9043,11 A3.75,3.75 0 0 1 673.4043,13.5 L680.4043,34.0146 L779.5,34.0146 A2.5,2.5 0 0 1 782,36.5146 L782,240.5 A2.5,2.5 0 0 1 779.5,243 L400.5,243 A2.5,2.5 0 0 1 398,240.5 L398,13.5 A2.5,2.5 0 0 1 400.5,11" fill="#FFFFFF" style="stroke:#000000;stroke-width:1;"/><line style="stroke:#000000;stroke-width:1;" x1="398" x2="680.4043" y1="34.0146" y2="34.0146"/><text fill="#000000" font-family="Verdana" font-size="14" font-weight="bold" lengthAdjust="spacing" textLength="269.4043" x="402" y="27.0752">Visualizaci&#243;n Central (Dashboard)</text></g><!--cluster Auditor?a y Archivo Hist?rico--><g class="cluster" data-qualified-name="Auditor.a y Archivo Hist.rico" data-source-line="28" id="ent0004"><path d="M13.5,288 L240.4004,288 A3.75,3.75 0 0 1 242.9004,290.5 L249.9004,311.0146 L384.5,311.0146 A2.5,2.5 0 0 1 387,313.5146 L387,500.5 A2.5,2.5 0 0 1 384.5,503 L13.5,503 A2.5,2.5 0 0 1 11,500.5 L11,290.5 A2.5,2.5 0 0 1 13.5,288" fill="#FFFFFF" style="stroke:#000000;stroke-width:1;"/><line style="stroke:#000000;stroke-width:1;" x1="11" x2="249.9004" y1="311.0146" y2="311.0146"/><text fill="#000000" font-family="Verdana" font-size="14" font-weight="bold" lengthAdjust="spacing" textLength="225.9004" x="15" y="304.0752">Auditor&#237;a y Archivo Hist&#243;rico</text></g><!--cluster Gesti?n de Acciones Operativas--><g class="cluster" data-qualified-name="Gesti.n de Acciones Operativas" data-source-line="43" id="ent0006"><path d="M417.5,271 L666.1797,271 A3.75,3.75 0 0 1 668.6797,273.5 L675.6797,294.0146 L1139.5,294.0146 A2.5,2.5 0 0 1 1142,296.5146 L1142,517.5 A2.5,2.5 0 0 1 1139.5,520 L417.5,520 A2.5,2.5 0 0 1 415,517.5 L415,273.5 A2.5,2.5 0 0 1 417.5,271" fill="#FFFFFF" style="stroke:#000000;stroke-width:1;"/><line style="stroke:#000000;stroke-width:1;" x1="415" x2="675.6797" y1="294.0146" y2="294.0146"/><text fill="#000000" font-family="Verdana" font-size="14" font-weight="bold" lengthAdjust="spacing" textLength="247.6797" x="419" y="287.0752">Gesti&#243;n de Acciones Operativas</text></g><!--class mapa_calor--><g class="entity" data-qualified-name="Visualizaci.n Central .Dashboard..mapa_calor" data-source-line="14" id="ent0003"><rect fill="#FFFFFF" height="180.1172" rx="2.5" ry="2.5" style="stroke:#000000;stroke-width:1;" width="351.626" x="414" y="47"/><ellipse cx="519.9937" cy="61" fill="#FFFFFF" rx="9" ry="9" style="stroke:#000000;stroke-width:1;"/><path d="M515.728,67 L515.728,54.8281 L524.7593,54.8281 L524.7593,56.8906 L518.1812,56.8906 L518.1812,59.5938 L524.2905,59.5938 L524.2905,61.6406 L518.1812,61.6406 L518.1812,64.9531 L524.9937,64.9531 L524.9937,67 L515.728,67 Z " fill="#000000"/><text fill="#000000" font-family="Verdana" font-size="14" lengthAdjust="spacing" textLength="132.1387" x="537.4937" y="66.5679">Datos_Mapa_Calor</text><line style="stroke:#000000;stroke-width:1;" x1="415" x2="764.626" y1="75" y2="75"/><g data-visibility-modifier="IE_MANDATORY"><ellipse cx="425" cy="89.0073" fill="#FFFFFF" rx="3" ry="3" style="stroke:#000000;stroke-width:1;"/></g><text fill="#000000" font-family="Verdana" font-size="14" lengthAdjust="spacing" textLength="94.8691" x="432" y="93.0752">id : INT &#171;PK&#187;</text><line style="stroke:#000000;stroke-width:1;" x1="415" x2="764.626" y1="100.0146" y2="100.0146"/><g data-visibility-modifier="IE_MANDATORY"><ellipse cx="425" cy="114.022" fill="#FFFFFF" rx="3" ry="3" style="stroke:#000000;stroke-width:1;"/></g><text fill="#000000" font-family="Verdana" font-size="14" lengthAdjust="spacing" textLength="183.791" x="432" y="118.0898">tipo_zona : VARCHAR(30)</text><text fill="#000000" font-family="Verdana" font-size="14" lengthAdjust="spacing" textLength="327.626" x="432" y="135.1045">sede_area_id : INT &#171;External_Ref&#187; &#171;Nullable&#187;</text><text fill="#000000" font-family="Verdana" font-size="14" lengthAdjust="spacing" textLength="296.7412" x="432" y="152.1191">activo_id : INT &#171;External_Ref&#187; &#171;Nullable&#187;</text><text fill="#000000" font-family="Verdana" font-size="14" lengthAdjust="spacing" textLength="4.9219" x="432" y="169.1338">&#160;</text><g data-visibility-modifier="IE_MANDATORY"><ellipse cx="425" cy="182.0806" fill="#FFFFFF" rx="3" ry="3" style="stroke:#000000;stroke-width:1;"/></g><text fill="#000000" font-family="Verdana" font-size="14" lengthAdjust="spacing" textLength="249.8945" x="432" y="186.1484">indice_calor_acumulado : DECIMAL</text><g data-visibility-modifier="IE_MANDATORY"><ellipse cx="425" cy="199.0952" fill="#FFFFFF" rx="3" ry="3" style="stroke:#000000;stroke-width:1;"/></g><text fill="#000000" font-family="Verdana" font-size="14" lengthAdjust="spacing" textLength="249.3613" x="432" y="203.1631">nivel_riesgo_visual : VARCHAR(20)</text><g data-visibility-modifier="IE_MANDATORY"><ellipse cx="425" cy="216.1099" fill="#FFFFFF" rx="3" ry="3" style="stroke:#000000;stroke-width:1;"/></g><text fill="#000000" font-family="Verdana" font-size="14" lengthAdjust="spacing" textLength="279.3438" x="432" y="220.1777">fecha_ultima_actualizacion : DATETIME</text></g><!--class archivos--><g class="entity" data-qualified-name="Auditor.a y Archivo Hist.rico.archivos" data-source-line="30" id="ent0005"><rect fill="#FFFFFF" height="163.1025" rx="2.5" ry="2.5" style="stroke:#000000;stroke-width:1;" width="344.2842" x="27" y="324"/><ellipse cx="121.3589" cy="338" fill="#FFFFFF" rx="9" ry="9" style="stroke:#000000;stroke-width:1;"/><path d="M117.0933,344 L117.0933,331.8281 L126.1245,331.8281 L126.1245,333.8906 L119.5464,333.8906 L119.5464,336.5938 L125.6558,336.5938 L125.6558,338.6406 L119.5464,338.6406 L119.5464,341.9531 L126.3589,341.9531 L126.3589,344 L117.0933,344 Z " fill="#000000"/><text fill="#000000" font-family="Verdana" font-size="14" lengthAdjust="spacing" textLength="148.0664" x="138.8589" y="343.5679">Reportes_Archivados</text><line style="stroke:#000000;stroke-width:1;" x1="28" x2="370.2842" y1="352" y2="352"/><g data-visibility-modifier="IE_MANDATORY"><ellipse cx="38" cy="366.0073" fill="#FFFFFF" rx="3" ry="3" style="stroke:#000000;stroke-width:1;"/></g><text fill="#000000" font-family="Verdana" font-size="14" lengthAdjust="spacing" textLength="94.8691" x="45" y="370.0752">id : INT &#171;PK&#187;</text><line style="stroke:#000000;stroke-width:1;" x1="28" x2="370.2842" y1="377.0146" y2="377.0146"/><g data-visibility-modifier="IE_MANDATORY"><ellipse cx="38" cy="391.022" fill="#FFFFFF" rx="3" ry="3" style="stroke:#000000;stroke-width:1;"/></g><text fill="#000000" font-family="Verdana" font-size="14" lengthAdjust="spacing" textLength="185.4453" x="45" y="395.0898">mapa_calor_id : INT &#171;FK&#187;</text><g data-visibility-modifier="IE_MANDATORY"><ellipse cx="38" cy="408.0366" fill="#FFFFFF" rx="3" ry="3" style="stroke:#000000;stroke-width:1;"/></g><text fill="#000000" font-family="Verdana" font-size="14" lengthAdjust="spacing" textLength="320.2842" x="45" y="412.1045">inspeccion_id : INT &#171;External_Ref&#187; &#171;Unique&#187;</text><text fill="#000000" font-family="Verdana" font-size="14" lengthAdjust="spacing" textLength="4.9219" x="45" y="429.1191">&#160;</text><g data-visibility-modifier="IE_MANDATORY"><ellipse cx="38" cy="442.0659" fill="#FFFFFF" rx="3" ry="3" style="stroke:#000000;stroke-width:1;"/></g><text fill="#000000" font-family="Verdana" font-size="14" lengthAdjust="spacing" textLength="305.0879" x="45" y="446.1338">url_documento_guardado : VARCHAR(255)</text><g data-visibility-modifier="IE_MANDATORY"><ellipse cx="38" cy="459.0806" fill="#FFFFFF" rx="3" ry="3" style="stroke:#000000;stroke-width:1;"/></g><text fill="#000000" font-family="Verdana" font-size="14" lengthAdjust="spacing" textLength="237.3643" x="45" y="463.1484">hash_integridad : VARCHAR(255)</text><g data-visibility-modifier="IE_MANDATORY"><ellipse cx="38" cy="476.0952" fill="#FFFFFF" rx="3" ry="3" style="stroke:#000000;stroke-width:1;"/></g><text fill="#000000" font-family="Verdana" font-size="14" lengthAdjust="spacing" textLength="187.0928" x="45" y="480.1631">fecha_archivo : DATETIME</text></g><!--class preventivos--><g class="entity" data-qualified-name="Gesti.n de Acciones Operativas.preventivos" data-source-line="45" id="ent0007"><rect fill="#FFFFFF" height="197.1318" rx="2.5" ry="2.5" style="stroke:#000000;stroke-width:1;" width="317.2412" x="808.5" y="307"/><ellipse cx="862.2876" cy="321" fill="#FFFFFF" rx="9" ry="9" style="stroke:#000000;stroke-width:1;"/><path d="M858.022,327 L858.022,314.8281 L867.0532,314.8281 L867.0532,316.8906 L860.4751,316.8906 L860.4751,319.5938 L866.5845,319.5938 L866.5845,321.6406 L860.4751,321.6406 L860.4751,324.9531 L867.2876,324.9531 L867.2876,327 L858.022,327 Z " fill="#000000"/><text fill="#000000" font-family="Verdana" font-size="14" lengthAdjust="spacing" textLength="202.166" x="879.7876" y="326.5679">Mantenimientos_Preventivos</text><line style="stroke:#000000;stroke-width:1;" x1="809.5" x2="1124.7412" y1="335" y2="335"/><g data-visibility-modifier="IE_MANDATORY"><ellipse cx="819.5" cy="349.0073" fill="#FFFFFF" rx="3" ry="3" style="stroke:#000000;stroke-width:1;"/></g><text fill="#000000" font-family="Verdana" font-size="14" lengthAdjust="spacing" textLength="94.8691" x="826.5" y="353.0752">id : INT &#171;PK&#187;</text><line style="stroke:#000000;stroke-width:1;" x1="809.5" x2="1124.7412" y1="360.0146" y2="360.0146"/><g data-visibility-modifier="IE_MANDATORY"><ellipse cx="819.5" cy="374.022" fill="#FFFFFF" rx="3" ry="3" style="stroke:#000000;stroke-width:1;"/></g><text fill="#000000" font-family="Verdana" font-size="14" lengthAdjust="spacing" textLength="185.4453" x="826.5" y="378.0898">mapa_calor_id : INT &#171;FK&#187;</text><g data-visibility-modifier="IE_MANDATORY"><ellipse cx="819.5" cy="391.0366" fill="#FFFFFF" rx="3" ry="3" style="stroke:#000000;stroke-width:1;"/></g><text fill="#000000" font-family="Verdana" font-size="14" lengthAdjust="spacing" textLength="217.4443" x="826.5" y="395.1045">activo_id : INT &#171;External_Ref&#187;</text><g data-visibility-modifier="IE_MANDATORY"><ellipse cx="819.5" cy="408.0513" fill="#FFFFFF" rx="3" ry="3" style="stroke:#000000;stroke-width:1;"/></g><text fill="#000000" font-family="Verdana" font-size="14" lengthAdjust="spacing" textLength="293.2412" x="826.5" y="412.1191">programado_por_id : INT &#171;External_Ref&#187;</text><text fill="#000000" font-family="Verdana" font-size="14" lengthAdjust="spacing" textLength="4.9219" x="826.5" y="429.1338">&#160;</text><g data-visibility-modifier="IE_MANDATORY"><ellipse cx="819.5" cy="442.0806" fill="#FFFFFF" rx="3" ry="3" style="stroke:#000000;stroke-width:1;"/></g><text fill="#000000" font-family="Verdana" font-size="14" lengthAdjust="spacing" textLength="186.2178" x="826.5" y="446.1484">fecha_programada : DATE</text><g data-visibility-modifier="IE_MANDATORY"><ellipse cx="819.5" cy="459.0952" fill="#FFFFFF" rx="3" ry="3" style="stroke:#000000;stroke-width:1;"/></g><text fill="#000000" font-family="Verdana" font-size="14" lengthAdjust="spacing" textLength="176.1279" x="826.5" y="463.1631">descripcion_tarea : TEXT</text><g data-visibility-modifier="IE_MANDATORY"><ellipse cx="819.5" cy="476.1099" fill="#FFFFFF" rx="3" ry="3" style="stroke:#000000;stroke-width:1;"/></g><text fill="#000000" font-family="Verdana" font-size="14" lengthAdjust="spacing" textLength="276.9854" x="826.5" y="480.1777">estado_mantenimiento : VARCHAR(20)</text><text fill="#000000" font-family="Verdana" font-size="14" lengthAdjust="spacing" textLength="194.4414" x="826.5" y="497.1924">fecha_creacion : DATETIME</text></g><!--class tickets--><g class="entity" data-qualified-name="Gesti.n de Acciones Operativas.tickets" data-source-line="59" id="ent0008"><rect fill="#FFFFFF" height="180.1172" rx="2.5" ry="2.5" style="stroke:#000000;stroke-width:1;" width="317.3096" x="431.5" y="315.5"/><ellipse cx="494.2734" cy="329.5" fill="#FFFFFF" rx="9" ry="9" style="stroke:#000000;stroke-width:1;"/><path d="M490.0078,335.5 L490.0078,323.3281 L499.0391,323.3281 L499.0391,325.3906 L492.4609,325.3906 L492.4609,328.0938 L498.5703,328.0938 L498.5703,330.1406 L492.4609,330.1406 L492.4609,333.4531 L499.2734,333.4531 L499.2734,335.5 L490.0078,335.5 Z " fill="#000000"/><text fill="#000000" font-family="Verdana" font-size="14" lengthAdjust="spacing" textLength="184.2627" x="511.7734" y="335.0679">Tickets_Accion_Correctiva</text><line style="stroke:#000000;stroke-width:1;" x1="432.5" x2="747.8096" y1="343.5" y2="343.5"/><g data-visibility-modifier="IE_MANDATORY"><ellipse cx="442.5" cy="357.5073" fill="#FFFFFF" rx="3" ry="3" style="stroke:#000000;stroke-width:1;"/></g><text fill="#000000" font-family="Verdana" font-size="14" lengthAdjust="spacing" textLength="94.8691" x="449.5" y="361.5752">id : INT &#171;PK&#187;</text><line style="stroke:#000000;stroke-width:1;" x1="432.5" x2="747.8096" y1="368.5146" y2="368.5146"/><g data-visibility-modifier="IE_MANDATORY"><ellipse cx="442.5" cy="382.522" fill="#FFFFFF" rx="3" ry="3" style="stroke:#000000;stroke-width:1;"/></g><text fill="#000000" font-family="Verdana" font-size="14" lengthAdjust="spacing" textLength="185.4453" x="449.5" y="386.5898">mapa_calor_id : INT &#171;FK&#187;</text><g data-visibility-modifier="IE_MANDATORY"><ellipse cx="442.5" cy="399.5366" fill="#FFFFFF" rx="3" ry="3" style="stroke:#000000;stroke-width:1;"/></g><text fill="#000000" font-family="Verdana" font-size="14" lengthAdjust="spacing" textLength="293.3096" x="449.5" y="403.6045">evaluacion_iperc_id : INT &#171;External_Ref&#187;</text><text fill="#000000" font-family="Verdana" font-size="14" lengthAdjust="spacing" textLength="4.9219" x="449.5" y="420.6191">&#160;</text><g data-visibility-modifier="IE_MANDATORY"><ellipse cx="442.5" cy="433.5659" fill="#FFFFFF" rx="3" ry="3" style="stroke:#000000;stroke-width:1;"/></g><text fill="#000000" font-family="Verdana" font-size="14" lengthAdjust="spacing" textLength="205.6045" x="449.5" y="437.6338">descripcion_problema : TEXT</text><g data-visibility-modifier="IE_MANDATORY"><ellipse cx="442.5" cy="450.5806" fill="#FFFFFF" rx="3" ry="3" style="stroke:#000000;stroke-width:1;"/></g><text fill="#000000" font-family="Verdana" font-size="14" lengthAdjust="spacing" textLength="219.9668" x="449.5" y="454.6484">nivel_prioridad : VARCHAR(20)</text><g data-visibility-modifier="IE_MANDATORY"><ellipse cx="442.5" cy="467.5952" fill="#FFFFFF" rx="3" ry="3" style="stroke:#000000;stroke-width:1;"/></g><text fill="#000000" font-family="Verdana" font-size="14" lengthAdjust="spacing" textLength="209.665" x="449.5" y="471.6631">estado_ticket : VARCHAR(20)</text><text fill="#000000" font-family="Verdana" font-size="14" lengthAdjust="spacing" textLength="213.0693" x="449.5" y="488.6777">fecha_generacion : DATETIME</text></g><!--link mapa_calor to archivos--><g class="link" data-entity-1="ent0003" data-entity-2="ent0005" data-link-type="crowfoot" data-source-line="78" id="lnk9"><path codeLine="78" d="M422.75,235.32 C422.75,313.47 422.75,406 422.75,406 C422.75,406 419.04,406 389.14,406" fill="none" id="mapa_calor-archivos" style="stroke:#000000;stroke-width:1;"/><line style="stroke:#000000;stroke-width:1;" x1="418.75" x2="426.75" y1="231.32" y2="231.32"/><line style="stroke:#000000;stroke-width:1;" x1="418.75" x2="426.75" y1="234.32" y2="234.32"/><line style="stroke:#000000;stroke-width:1;" x1="422.75" x2="422.75" y1="235.32" y2="227.32"/><line style="stroke:#000000;stroke-width:1;" x1="379.14" x2="371.14" y1="406" y2="412"/><line style="stroke:#000000;stroke-width:1;" x1="379.14" x2="371.14" y1="406" y2="400"/><line style="stroke:#000000;stroke-width:1;" x1="379.14" x2="371.14" y1="406" y2="406"/><ellipse cx="385.14" cy="406" fill="none" rx="4" ry="4" style="stroke:#000000;stroke-width:1;"/><text fill="#000000" font-family="Verdana" font-size="13" lengthAdjust="spacing" textLength="120.9292" x="301.75" y="339.5398">consolida_historial</text></g><!--link mapa_calor to preventivos--><g class="link" data-entity-1="ent0003" data-entity-2="ent0007" data-link-type="crowfoot" data-source-line="79" id="lnk10"><path codeLine="79" d="M757.25,235.06 C757.25,277.94 757.25,312 757.25,312 C757.25,312 760.9,312 790.29,312" fill="none" id="mapa_calor-preventivos" style="stroke:#000000;stroke-width:1;"/><line style="stroke:#000000;stroke-width:1;" x1="753.25" x2="761.25" y1="231.06" y2="231.06"/><line style="stroke:#000000;stroke-width:1;" x1="753.25" x2="761.25" y1="234.06" y2="234.06"/><line style="stroke:#000000;stroke-width:1;" x1="757.25" x2="757.25" y1="235.06" y2="227.06"/><line style="stroke:#000000;stroke-width:1;" x1="800.29" x2="808.29" y1="312" y2="306"/><line style="stroke:#000000;stroke-width:1;" x1="800.29" x2="808.29" y1="312" y2="318"/><line style="stroke:#000000;stroke-width:1;" x1="800.29" x2="808.29" y1="312" y2="312"/><ellipse cx="794.29" cy="312" fill="none" rx="4" ry="4" style="stroke:#000000;stroke-width:1;"/><text fill="#000000" font-family="Verdana" font-size="13" lengthAdjust="spacing" textLength="146.3706" x="610.25" y="309.1198">requiere_para_mitigar</text></g><!--link mapa_calor to tickets--><g class="link" data-entity-1="ent0003" data-entity-2="ent0008" data-link-type="crowfoot" data-source-line="80" id="lnk11"><path codeLine="80" d="M590,235.15 C590,263.49 590,268.78 590,297.13" fill="none" id="mapa_calor-tickets" style="stroke:#000000;stroke-width:1;"/><line style="stroke:#000000;stroke-width:1;" x1="586" x2="594" y1="231.15" y2="231.15"/><line style="stroke:#000000;stroke-width:1;" x1="586" x2="594" y1="234.15" y2="234.15"/><line style="stroke:#000000;stroke-width:1;" x1="590" x2="590" y1="235.15" y2="227.15"/><line style="stroke:#000000;stroke-width:1;" x1="590" x2="596" y1="307.13" y2="315.13"/><line style="stroke:#000000;stroke-width:1;" x1="590" x2="584" y1="307.13" y2="315.13"/><line style="stroke:#000000;stroke-width:1;" x1="590" x2="590" y1="307.13" y2="315.13"/><ellipse cx="590" cy="301.13" fill="none" rx="4" ry="4" style="stroke:#000000;stroke-width:1;"/><text fill="#000000" font-family="Verdana" font-size="13" lengthAdjust="spacing" textLength="118.3267" x="471" y="268.2098">refleja_alertas_en</text></g><?plantuml-src hLRBRjj65DthAswriHr0ZTiYGI6aBbY9heLOaY4fGNV4zV1AcdWumymCXJYFJ-WgNv0Fo2gxR0fKFzPBKezH_QXLX0j19E_pd7lky3i_fumWLoXrmrr9dQF539JKvAzp0cFzt0Glj4d9KGvFZuE75lLL-V3duqRZ07vvyCN6_UN7xelpOHlwmq5lCXp5GtWCtMXyzjim6dNXa1Qjfpzyd-lPqNwH6pcAAvmHD5zALw2IRr78vHSD7TBUeeB3BhhvfK6R7ZNXNQC1V1r0F9Zqkb4NBgBkA6wlZTaPl4aDA0El2mP55DOIa8P28xmr_6CWMtvwNKYDLIJsa_uQcbtqnYLzp37fe3As2UWWAsz5USk9ONKz0fb26tg32JnxTl7yv6JpfjNQ_3s04RdSw9I0Mx0ckpGmBOIJs8Q__ngJy1npklpif31bILXLP2N-6kJnCZT9LNGRNaQZpbaqElpf-6XZuIYb12rX4bGKl_5aDQfaHDEJ4tumA9J2IqL1eIYyN9Y7UeMTwrGAgY59K1HPeP3HRaCtxlJwqNbWgkM2L68bkPb95XMrGHi_1cqyWYc9EIQ5yZ933klNOs1q6JgQn9DUFwxiFpG-11CJ5Qba89UV4QuXicBENS6PT7xvnJAmct5PapoYd6L2BgbjkNHNyOorg_iVBCVdKQUt_3Y0RcyKToPH6sBdQHqHSk9ycWG_0N9-DOCfgMgsWcpRKGjfEGqJb_2xd4I9oxtSlT2IXt-NkSAg96KvP8o5IMO5owbcRiF8aoSX9NCMNIArfvcLR7ctOStTkjzxwVgT4QYapQg8gZR8mP0XGXv7T3VewYFdrpAJPSqkkR2qA5yjLgpbs_jlGjmsFaUNCrtYKwvDhcVAohHR0X_lh90z2FmluGMckJKpNjbSH9BlnloNomqkDfwueYEmu3D1M9bN8-JBrS4ca_YFIM1ITib9in3yEvHRvnCSvdQjxh0vaUAAF6kl7k2EuSrSme4LcRv--qs8h3C1NafMNtqGbDrm9nI8a0-5fZMlJ7DV4cc1gi1QXJoyuc7SXCWpGxnQirl0hxTcRgMv8RkTZRaYgKRjNdPctBMzUvVk-HLGepqSn6CuNVuvxdMYCHoU6aki5tXErsxVq_y09kLvxGW4hmF1vF0vePTVXI9Jxed5paT18pYHtxzljSoxxUvkGvD3EACOk6JEXm13YAfvYqkuEDZB4ckPB2Mbs9DCUZb3UvlVUaOhdwcYLxpt58yOkeHqi_4F?></g></svg>